<svg width="20" height="20" viewBox="0 0 20 20" fill="none" xmlns="http://www.w3.org/2000/svg">
<path d="M15.7895 15.7895C16.3478 15.7895 16.8833 16.0113 17.2781 16.4061C17.6729 16.8009 17.8947 17.3364 17.8947 17.8947C17.8947 18.4531 17.6729 18.9886 17.2781 19.3834C16.8833 19.7782 16.3478 20 15.7895 20C15.2311 20 14.6956 19.7782 14.3008 19.3834C13.906 18.9886 13.6842 18.4531 13.6842 17.8947C13.6842 17.3364 13.906 16.8009 14.3008 16.4061C14.6956 16.0113 15.2311 15.7895 15.7895 15.7895ZM15.7895 16.8421C15.5103 16.8421 15.2426 16.953 15.0452 17.1504C14.8477 17.3478 14.7368 17.6156 14.7368 17.8947C14.7368 18.1739 14.8477 18.4417 15.0452 18.6391C15.2426 18.8365 15.5103 18.9474 15.7895 18.9474C16.0686 18.9474 16.3364 18.8365 16.5338 18.6391C16.7312 18.4417 16.8421 18.1739 16.8421 17.8947C16.8421 17.6156 16.7312 17.3478 16.5338 17.1504C16.3364 16.953 16.0686 16.8421 15.7895 16.8421ZM6.31579 15.7895C6.87414 15.7895 7.40962 16.0113 7.80444 16.4061C8.19925 16.8009 8.42105 17.3364 8.42105 17.8947C8.42105 18.4531 8.19925 18.9886 7.80444 19.3834C7.40962 19.7782 6.87414 20 6.31579 20C5.75744 20 5.22196 19.7782 4.82714 19.3834C4.43233 18.9886 4.21053 18.4531 4.21053 17.8947C4.21053 17.3364 4.43233 16.8009 4.82714 16.4061C5.22196 16.0113 5.75744 15.7895 6.31579 15.7895ZM6.31579 16.8421C6.03661 16.8421 5.76887 16.953 5.57147 17.1504C5.37406 17.3478 5.26316 17.6156 5.26316 17.8947C5.26316 18.1739 5.37406 18.4417 5.57147 18.6391C5.76887 18.8365 6.03661 18.9474 6.31579 18.9474C6.59496 18.9474 6.86271 18.8365 7.06011 18.6391C7.25752 18.4417 7.36842 18.1739 7.36842 17.8947C7.36842 17.6156 7.25752 17.3478 7.06011 17.1504C6.86271 16.953 6.59496 16.8421 6.31579 16.8421ZM17.8947 3.15789H3.44211L6.12632 9.47368H14.7368C15.0842 9.47368 15.3895 9.30526 15.5789 9.05263L18.7368 4.84211C18.8737 4.66316 18.9474 4.44211 18.9474 4.21053C18.9474 3.93135 18.8365 3.66361 18.6391 3.4662C18.4417 3.2688 18.1739 3.15789 17.8947 3.15789ZM14.7368 10.5263H6.17895L5.36842 12.1684L5.26316 12.6316C5.26316 12.9108 5.37406 13.1785 5.57147 13.3759C5.76887 13.5733 6.03661 13.6842 6.31579 13.6842H17.8947V14.7368H6.31579C5.75744 14.7368 5.22196 14.515 4.82714 14.1202C4.43233 13.7254 4.21053 13.1899 4.21053 12.6316C4.21021 12.2744 4.30077 11.923 4.47368 11.6105L5.23158 10.0632L1.41053 1.05263H0V0H2.10526L3 2.10526H17.8947C18.4531 2.10526 18.9886 2.32707 19.3834 2.72188C19.7782 3.11669 20 3.65218 20 4.21053C20 4.73684 19.8211 5.17895 19.5263 5.53684L16.4632 9.63158C16.0842 10.1684 15.4526 10.5263 14.7368 10.5263Z" fill="#5B5F62"/>
</svg>
