<svg width="20" height="22" viewBox="0 0 20 22" fill="none" xmlns="http://www.w3.org/2000/svg">
<path d="M10.0012 11.6568C9.61427 11.6582 9.23855 11.7799 8.9318 12.0031C8.62504 12.2264 8.40423 12.5389 8.30331 12.8925C8.20239 13.2461 8.22695 13.6214 8.3732 13.9605C8.51946 14.2996 8.77932 14.5839 9.11284 14.7696V17.1542H10.9112V14.7696C11.1751 14.6218 11.3941 14.4119 11.5469 14.1603C11.6997 13.9087 11.7812 13.6239 11.7833 13.3337C11.7833 13.1126 11.7371 12.8937 11.6475 12.6896C11.5578 12.4855 11.4263 12.3001 11.2607 12.1443C11.0951 11.9884 10.8985 11.8651 10.6824 11.7815C10.4662 11.6978 10.2347 11.6554 10.0012 11.6568Z" stroke="white" stroke-width="0.7" stroke-linecap="round" stroke-linejoin="round"/>
<path d="M16.6599 7.80493H3.34005C2.04768 7.80493 1 8.79679 1 10.0203V18.7844C1 20.0079 2.04768 20.9998 3.34005 20.9998H16.6599C17.9523 20.9998 19 20.0079 19 18.7844V10.0203C19 8.79679 17.9523 7.80493 16.6599 7.80493Z" stroke="white" stroke-width="0.7" stroke-linecap="round" stroke-linejoin="round"/>
<path d="M4.23438 7.80512V6.46666C4.23438 5.01681 4.84274 3.62635 5.92563 2.60115C7.00852 1.57595 8.47724 1 10.0087 1C11.5401 1 13.0088 1.57595 14.0917 2.60115C15.1746 3.62635 15.783 5.01681 15.783 6.46666V7.80512" stroke="white" stroke-width="0.7" stroke-linecap="round" stroke-linejoin="round"/>
</svg>
