<svg width="23" height="23" viewBox="0 0 23 23" fill="none" xmlns="http://www.w3.org/2000/svg">
<path d="M2.09375 11.3383L10.061 2.84138C10.1539 2.74229 10.2642 2.66368 10.3855 2.61005C10.5069 2.55641 10.637 2.52881 10.7683 2.52881C10.8997 2.52881 11.0298 2.55641 11.1512 2.61005C11.2725 2.66368 11.3828 2.74229 11.4757 2.84138L19.4429 11.3383M4.09558 9.20343V18.8105C4.09558 19.3998 4.54399 19.878 5.09649 19.878H8.76651V15.2523C8.76651 14.6631 9.21492 14.1849 9.76743 14.1849H11.7693C12.3218 14.1849 12.7702 14.6631 12.7702 15.2523V19.878H16.4402C16.9927 19.878 17.4411 19.3998 17.4411 18.8105V9.20343M7.43196 19.878H14.772" stroke="white" stroke-linecap="round" stroke-linejoin="round"/>
</svg>
