<svg width="23" height="23" viewBox="0 0 23 23" fill="none" xmlns="http://www.w3.org/2000/svg">
<path d="M7.53374 20.3065L11.1717 17.578C11.2486 17.52 11.3547 17.52 11.4316 17.578L15.0696 20.3065C15.5439 20.6618 16.1336 20.8275 16.7235 20.7714C17.3136 20.7153 17.8614 20.4412 18.2602 20.003C18.6591 19.5646 18.8804 18.9935 18.8809 18.401V4.97497C18.8798 4.22862 18.583 3.51313 18.0553 2.98544C17.5275 2.4576 16.812 2.16077 16.0657 2.15991H6.53786C5.79152 2.16078 5.07602 2.45761 4.54818 2.98544C4.02049 3.51313 3.72366 4.22859 3.72266 4.97497V18.401C3.72266 18.9938 3.94379 19.5652 4.34256 20.0038C4.74148 20.4423 5.28962 20.7163 5.87965 20.7723C6.46981 20.8283 7.05957 20.6622 7.53374 20.3065ZM5.02175 4.97504C5.02218 4.57323 5.18213 4.18794 5.46636 3.90373C5.75043 3.61951 6.13571 3.45971 6.53767 3.45927H16.0658C16.4678 3.4597 16.853 3.6195 17.137 3.90373C17.4212 4.18795 17.5812 4.57323 17.5816 4.97504V18.4011C17.5816 18.6705 17.4811 18.9302 17.2997 19.1296C17.1185 19.3288 16.8693 19.4534 16.6011 19.4789C16.3328 19.5043 16.0649 19.4289 15.8492 19.2672L12.2112 16.5396C11.9483 16.3438 11.6294 16.2381 11.3017 16.2381C10.974 16.2381 10.6551 16.3438 10.3922 16.5396L6.75426 19.2672C6.53863 19.4289 6.27066 19.5043 6.00238 19.4789C5.73411 19.4534 5.48497 19.3288 5.30374 19.1296C5.12234 18.9302 5.02184 18.6705 5.02184 18.4011L5.02175 4.97504Z" fill="white"/>
<path d="M8.70432 7.78951H13.9014C14.1336 7.78951 14.3481 7.66568 14.4641 7.46469C14.5801 7.26371 14.5801 7.01603 14.4641 6.81505C14.3481 6.61407 14.1336 6.49023 13.9014 6.49023H8.70432C8.47216 6.49023 8.2577 6.61407 8.14169 6.81505C8.02569 7.01604 8.02569 7.26371 8.14169 7.46469C8.2577 7.66568 8.47217 7.78951 8.70432 7.78951Z" fill="white"/>
</svg>
