<svg width="21" height="19" viewBox="0 0 21 19" fill="none" xmlns="http://www.w3.org/2000/svg">
<path d="M13.8908 13.7846V16.3415C13.8908 16.6806 13.7399 17.0058 13.4713 17.2455C13.2026 17.4853 12.8383 17.62 12.4585 17.62H2.43231C2.05244 17.62 1.68812 17.4853 1.41951 17.2455C1.1509 17.0058 1 16.6806 1 16.3415V2.27846C1 1.93939 1.1509 1.61421 1.41951 1.37445C1.68812 1.13469 2.05244 1 2.43231 1H12.4585C12.8383 1 13.2026 1.13469 13.4713 1.37445C13.7399 1.61421 13.8908 1.93939 13.8908 2.27846V4.83538M9.5938 9.31H19.62M19.62 9.31L16.7554 6.75308M19.62 9.31L16.7554 11.8669" stroke="#9398B2" stroke-width="0.9" stroke-linecap="round" stroke-linejoin="round"/>
</svg>
