<svg width="20" height="26" viewBox="0 0 20 26" fill="none" xmlns="http://www.w3.org/2000/svg">
<path d="M5 6.50651C5 3.46974 7.46681 1 10.5 1C13.5328 1 15.9993 3.46899 16 6.50515C15.9877 9.48457 13.6669 11.8895 10.7092 12H10.7077H10.7047H10.7018H10.6988H10.6959H10.6929H10.69H10.6871H10.6841H10.6812H10.6782C10.5581 11.9862 10.4333 11.9879 10.3194 11.9985C7.29533 11.8702 5 9.46671 5 6.50651Z" stroke="#9398B2" stroke-width="0.9"/>
<path d="M3.38371 23.3277L3.38167 23.3263C1.78805 22.353 1 21.0984 1 19.8224C1 18.5456 1.78858 17.2788 3.39503 16.2932C5.19319 15.203 7.58841 14.6382 10.0174 14.6382C12.447 14.6382 14.835 15.2034 16.6183 16.2928C18.2067 17.263 18.9875 18.5172 19 19.7998C18.9988 21.0883 18.21 22.3424 16.6154 23.3282C14.8253 24.4292 12.4316 25 9.99997 25C7.56802 25 5.17394 24.429 3.38371 23.3277Z" stroke="#9398B2" stroke-width="0.9"/>
</svg>
