<svg width="18" height="14" viewBox="0 0 18 14" fill="none" xmlns="http://www.w3.org/2000/svg">
<rect x="0.4" y="0.4" width="17.2" height="13.2" rx="0.6" stroke="white" stroke-width="0.8"/>
<path d="M4.63006 4.852C4.94681 4.284 5.10505 4 5.3418 4C5.57854 4 5.73679 4.284 6.05353 4.852L6.13553 4.999C6.22553 5.1605 6.27052 5.24125 6.34052 5.2945C6.41052 5.34775 6.49802 5.3675 6.67302 5.407L6.83201 5.443C7.447 5.58225 7.75424 5.65176 7.82749 5.88701C7.90049 6.12201 7.69099 6.36726 7.27175 6.85751L7.16325 6.98426C7.04426 7.12351 6.98451 7.19326 6.95776 7.27926C6.93101 7.36551 6.94001 7.45851 6.95801 7.64426L6.97451 7.81351C7.03776 8.46776 7.06951 8.79476 6.87801 8.94002C6.68652 9.08552 6.39852 8.95277 5.82304 8.68776L5.67379 8.61926C5.51029 8.54376 5.42854 8.50626 5.3418 8.50626C5.25505 8.50626 5.1733 8.54376 5.0098 8.61926L4.86081 8.68776C4.28507 8.95277 3.99708 9.08527 3.80583 8.94027C3.61409 8.79476 3.64584 8.46776 3.70909 7.81351L3.72558 7.64451C3.74358 7.45851 3.75258 7.36551 3.72558 7.27951C3.69909 7.19326 3.63934 7.12351 3.52034 6.98451L3.41184 6.85751C2.9926 6.36751 2.78311 6.12226 2.85611 5.88701C2.92935 5.65176 3.23685 5.582 3.85183 5.443L4.01083 5.407C4.18557 5.3675 4.27282 5.34775 4.34307 5.2945C4.41307 5.24125 4.45807 5.1605 4.54807 4.999L4.63006 4.852Z" stroke="white" stroke-width="0.7"/>
<path d="M9.47461 10H15.1588" stroke="white" stroke-width="0.8" stroke-linecap="round"/>
<path d="M9.47461 8H15.1588" stroke="white" stroke-width="0.8" stroke-linecap="round"/>
<path d="M9.47461 6H15.1588" stroke="white" stroke-width="0.8" stroke-linecap="round"/>
<path d="M9.47461 4H13.2641" stroke="white" stroke-width="0.8" stroke-linecap="round"/>
</svg>
