<svg width="20" height="20" viewBox="0 0 20 20" fill="none" xmlns="http://www.w3.org/2000/svg">
<path d="M13.8768 3.56515C13.3458 3.56515 13.0794 3.56515 12.8373 3.47515L12.7374 3.43375C12.5025 3.32575 12.3144 3.13855 11.9382 2.76236C11.0724 1.89656 10.6395 1.46366 10.1076 1.42316C10.0357 1.41884 9.96353 1.41884 9.8916 1.42316C9.3597 1.46366 8.9268 1.89656 8.06101 2.76236C7.68481 3.13855 7.49671 3.32665 7.26181 3.43375L7.16281 3.47515C6.91981 3.56515 6.65431 3.56515 6.12242 3.56515H6.02342C4.66712 3.56515 3.98853 3.56515 3.56643 3.98635C3.14433 4.40755 3.14523 5.08704 3.14523 6.44334V6.54234C3.14523 7.07333 3.14523 7.33973 3.05523 7.58183C3.04203 7.61603 3.02823 7.64933 3.01383 7.68173C2.90583 7.91663 2.71863 8.10473 2.34244 8.48093C1.47664 9.34672 1.04374 9.77962 1.00324 10.3115C0.99892 10.3835 0.99892 10.4556 1.00324 10.5275C1.04374 11.0594 1.47664 11.4923 2.34244 12.3581C2.71863 12.7343 2.90673 12.9224 3.01383 13.1573C3.02883 13.1897 3.04263 13.2227 3.05523 13.2563C3.14523 13.4993 3.14523 13.7648 3.14523 14.2967V14.3957C3.14523 15.752 3.14523 16.4306 3.56643 16.8527C3.98763 17.2748 4.66712 17.2739 6.02342 17.2739H6.12242C6.65341 17.2739 6.91981 17.2739 7.16191 17.3639C7.19611 17.3765 7.22941 17.3903 7.26181 17.4053C7.49671 17.5133 7.68481 17.7005 8.06101 18.0767C8.9268 18.9425 9.3597 19.3754 9.8916 19.4159C9.9636 19.4213 10.0356 19.4213 10.1076 19.4159C10.6395 19.3754 11.0724 18.9425 11.9382 18.0767C12.3144 17.7005 12.5025 17.5133 12.7374 17.4053C12.7698 17.3903 12.8028 17.3765 12.8364 17.3639C13.0794 17.2739 13.3449 17.2739 13.8768 17.2739H13.9758C15.3321 17.2739 16.0107 17.2739 16.4328 16.8527C16.8549 16.4315 16.854 15.752 16.854 14.3957V14.2967C16.854 13.7657 16.854 13.4993 16.944 13.2572C16.9566 13.223 16.9704 13.1897 16.9854 13.1573C17.0934 12.9224 17.2806 12.7343 17.6568 12.3581C18.5226 11.4923 18.9555 11.0594 18.996 10.5275C19.0014 10.4555 19.0014 10.3835 18.996 10.3115C18.9555 9.77962 18.5226 9.34672 17.6568 8.48093C17.2806 8.10473 17.0934 7.91663 16.9854 7.68173L16.944 7.58273C16.854 7.33973 16.854 7.07423 16.854 6.54234V6.44334C16.854 5.08704 16.854 4.40845 16.4328 3.98635C16.0116 3.56425 15.3321 3.56515 13.9758 3.56515H13.8768Z" stroke="white" stroke-width="0.9" stroke-linecap="round" stroke-linejoin="round"/>
<path d="M13.1515 10.4195C13.1515 10.8332 13.0701 11.2428 12.9118 11.6249C12.7535 12.0071 12.5214 12.3544 12.2289 12.6469C11.9364 12.9394 11.5892 13.1714 11.207 13.3297C10.8248 13.488 10.4152 13.5695 10.0015 13.5695C9.58788 13.5695 9.17827 13.488 8.7961 13.3297C8.41393 13.1714 8.06667 12.9394 7.77417 12.6469C7.48167 12.3544 7.24964 12.0071 7.09134 11.6249C6.93304 11.2428 6.85156 10.8332 6.85156 10.4195C6.85156 9.58409 7.18344 8.78288 7.77417 8.19214C8.36491 7.6014 9.16612 7.26953 10.0015 7.26953C10.837 7.26953 11.6382 7.6014 12.2289 8.19214C12.8197 8.78288 13.1515 9.58409 13.1515 10.4195Z" stroke="white" stroke-width="0.9" stroke-linecap="round" stroke-linejoin="round"/>
</svg>
