<svg width="20" height="20" viewBox="0 0 20 20" fill="none" xmlns="http://www.w3.org/2000/svg">
<path d="M17.3315 1H2.66854C1.74703 1 1 1.74704 1 2.66856V14.3383C1 15.2599 1.74703 16.0069 2.66854 16.0069H17.3315C18.253 16.0069 19 15.2599 19 14.3383V2.66856C19 1.74704 18.253 1 17.3315 1Z" stroke="#9398B2" stroke-width="0.7"/>
<path d="M4.71484 19H15.2889" stroke="#9398B2" stroke-width="0.7"/>
<path d="M6.79297 18.6058V16.3608" stroke="#9398B2" stroke-width="0.7"/>
<path d="M13.3047 18.6058V16.3608" stroke="#9398B2" stroke-width="0.7"/>
<path d="M9.16313 12.1462C8.80588 12.4068 8.36041 12.6865 7.96806 12.4825C7.78375 12.3867 7.60676 12.2774 7.43857 12.1555C7.09426 11.9058 7.11917 11.4097 7.16495 10.9869C7.19199 10.7371 7.14388 10.4849 7.0268 10.2626C6.90971 10.0403 6.72896 9.85803 6.50768 9.73906C6.13335 9.53778 5.71084 9.27714 5.70047 8.85227C5.69962 8.81719 5.6992 8.78209 5.69922 8.74698C5.69922 8.31341 5.76467 7.89498 5.88669 7.50136C5.88981 7.49131 5.89911 7.4845 5.90963 7.4845C6.1242 7.48457 6.33525 7.42994 6.52284 7.32579C6.71044 7.22163 6.86839 7.07139 6.98179 6.88924C7.09519 6.70708 7.16028 6.49903 7.17094 6.28472C7.18982 5.90511 7.22838 5.4792 7.54263 5.26543C7.72961 5.13822 7.92654 5.02634 8.13146 4.93085C8.49767 4.76024 8.90306 4.98327 9.24754 5.19435C9.44613 5.31604 9.67453 5.38041 9.90744 5.38036C10.1404 5.38041 10.3688 5.31604 10.5674 5.19435C10.9118 4.98327 11.3172 4.76024 11.6834 4.93085C11.887 5.02571 12.0826 5.13674 12.2685 5.26291C12.5852 5.47785 12.6238 5.90698 12.6441 6.28917C12.6556 6.50495 12.7223 6.71417 12.8377 6.89682C12.9532 7.07946 13.1136 7.2294 13.3036 7.3323C13.64 7.51445 14.0107 7.73385 14.068 8.11203C14.0999 8.32187 14.1158 8.53412 14.1156 8.74698C14.1156 8.78224 14.1152 8.81741 14.1143 8.85247C14.1039 9.27737 13.6815 9.53799 13.3073 9.73926C13.0859 9.85825 12.9052 10.0406 12.7881 10.2628C12.671 10.4851 12.623 10.7373 12.65 10.9871C12.6958 11.4099 12.7206 11.906 12.3763 12.1556C12.2081 12.2775 12.0312 12.3868 11.8468 12.4826C11.4545 12.6865 11.009 12.4068 10.6518 12.1462C10.4356 11.9885 10.175 11.9036 9.90744 11.9036C9.6399 11.9036 9.37928 11.9885 9.16313 12.1462Z" stroke="#9398B2" stroke-width="0.7" stroke-linejoin="round"/>
<path d="M9.91038 10.2202C10.1038 10.2202 10.2953 10.1821 10.474 10.1081C10.6527 10.0341 10.8151 9.92557 10.9519 9.7888C11.0886 9.65203 11.1971 9.48966 11.2712 9.31095C11.3452 9.13226 11.3833 8.94073 11.3833 8.74731C11.3833 8.55388 11.3452 8.36235 11.2712 8.18366C11.1971 8.00495 11.0886 7.84258 10.9519 7.70581C10.8151 7.56904 10.6527 7.46054 10.474 7.38653C10.2953 7.31251 10.1038 7.27441 9.91038 7.27441C9.51975 7.27441 9.14511 7.42959 8.86889 7.70581C8.59267 7.98203 8.4375 8.35667 8.4375 8.74731C8.4375 9.13794 8.59267 9.51258 8.86889 9.7888C9.14511 10.065 9.51975 10.2202 9.91038 10.2202Z" stroke="#9398B2" stroke-width="0.7" stroke-linejoin="round"/>
</svg>
