<svg width="20" height="19" viewBox="0 0 20 19" fill="none" xmlns="http://www.w3.org/2000/svg">
<path d="M17.15 0.620117H2.65C1.73873 0.620117 1 1.35885 1 2.27012V13.8101C1 14.7214 1.73873 15.4601 2.65 15.4601H17.15C18.0613 15.4601 18.8 14.7214 18.8 13.8101V2.27012C18.8 1.35885 18.0613 0.620117 17.15 0.620117Z" stroke="white" stroke-width="0.9"/>
<path d="M4.67334 18.4199H15.1299" stroke="white" stroke-width="0.9"/>
<path d="M6.7334 18.0301V15.8101" stroke="white" stroke-width="0.9"/>
<path d="M13.1709 18.0301V15.8101" stroke="white" stroke-width="0.9"/>
<path d="M9.07532 11.6424C8.72204 11.9001 8.28152 12.1767 7.89353 11.975C7.71127 11.8803 7.53625 11.7722 7.36992 11.6516C7.02944 11.4047 7.05407 10.9141 7.09934 10.496C7.12608 10.249 7.07851 9.99963 6.96273 9.77981C6.84694 9.55999 6.6682 9.37971 6.44938 9.26206C6.07921 9.06302 5.66139 8.80528 5.65114 8.38513C5.6503 8.35044 5.64988 8.31573 5.6499 8.28101C5.6499 7.85226 5.71462 7.43849 5.83529 7.04925C5.83837 7.03931 5.84757 7.03257 5.85797 7.03257C6.07016 7.03264 6.27886 6.97862 6.46437 6.87563C6.64988 6.77263 6.80608 6.62406 6.91822 6.44393C7.03036 6.2638 7.09473 6.05806 7.10527 5.84614C7.12394 5.47075 7.16207 5.04958 7.47283 4.83818C7.65773 4.71239 7.85247 4.60175 8.05512 4.50733C8.41726 4.33861 8.81814 4.55916 9.15879 4.76789C9.35518 4.88823 9.58104 4.95189 9.81136 4.95184C10.0417 4.95189 10.2676 4.88823 10.4639 4.76789C10.8046 4.55916 11.2055 4.33861 11.5676 4.50733C11.7689 4.60113 11.9624 4.71093 12.1462 4.83569C12.4594 5.04824 12.4975 5.4726 12.5176 5.85054C12.529 6.06392 12.5949 6.27081 12.7091 6.45143C12.8233 6.63204 12.9819 6.78031 13.1698 6.88207C13.5024 7.06219 13.869 7.27915 13.9257 7.65312C13.9572 7.86063 13.973 8.07052 13.9728 8.28101C13.9728 8.31588 13.9724 8.35066 13.9715 8.38533C13.9612 8.8055 13.5435 9.06322 13.1734 9.26226C12.9545 9.37992 12.7758 9.5602 12.66 9.78001C12.5442 9.99983 12.4967 10.2492 12.5234 10.4962C12.5687 10.9143 12.5933 11.4049 12.2528 11.6517C12.0865 11.7723 11.9115 11.8804 11.7292 11.9751C11.3412 12.1767 10.9007 11.9001 10.5474 11.6424C10.3337 11.4865 10.0759 11.4025 9.81136 11.4025C9.5468 11.4025 9.28907 11.4865 9.07532 11.6424Z" stroke="white" stroke-width="0.7" stroke-linejoin="round"/>
<path d="M9.81344 9.73773C10.0047 9.73773 10.1941 9.70006 10.3708 9.62686C10.5475 9.55367 10.7081 9.44638 10.8434 9.31113C10.9786 9.17588 11.0859 9.01532 11.1591 8.8386C11.2323 8.66189 11.27 8.47249 11.27 8.28122C11.27 8.08995 11.2323 7.90055 11.1591 7.72384C11.0859 7.54712 10.9786 7.38656 10.8434 7.25131C10.7081 7.11606 10.5475 7.00877 10.3708 6.93558C10.1941 6.86238 10.0047 6.82471 9.81344 6.82471C9.42715 6.82471 9.05668 6.97816 8.78353 7.25131C8.51038 7.52446 8.35693 7.89493 8.35693 8.28122C8.35693 8.66751 8.51038 9.03798 8.78353 9.31113C9.05668 9.58428 9.42715 9.73773 9.81344 9.73773Z" stroke="white" stroke-width="0.7" stroke-linejoin="round"/>
</svg>
