<svg width="23" height="24" viewBox="0 0 23 24" fill="none" xmlns="http://www.w3.org/2000/svg">
<path d="M15.9461 4.57031H6.39566C5.19254 4.57031 4.0387 5.0482 3.18798 5.89892C2.33727 6.74964 1.85938 7.90352 1.85938 9.1066V14.8367C1.85938 16.0398 2.33727 17.1937 3.18798 18.0444C4.0387 18.8951 5.19258 19.373 6.39566 19.373H15.9461C17.1493 19.373 18.3031 18.8951 19.1538 18.0444C20.0045 17.1937 20.4824 16.0398 20.4824 14.8367V9.1066C20.4824 7.90348 20.0045 6.74964 19.1538 5.89892C18.3031 5.0482 17.1492 4.57031 15.9461 4.57031ZM3.29199 10.7777H6.39575C6.82231 10.7777 7.21642 11.0052 7.4297 11.3747C7.64282 11.744 7.64282 12.199 7.4297 12.5683C7.21642 12.9378 6.82231 13.1653 6.39575 13.1653H3.29199V10.7777ZM19.0498 14.8366C19.0473 15.659 18.7195 16.447 18.138 17.0285C17.5564 17.61 16.7685 17.9379 15.946 17.9403H6.39558C5.57315 17.9379 4.78525 17.61 4.20361 17.0285C3.62212 16.447 3.29436 15.659 3.29182 14.8366V14.5979H6.39558C7.33393 14.5979 8.20094 14.0973 8.67003 13.2846C9.13929 12.4721 9.13929 11.4709 8.67003 10.6584C8.20094 9.84575 7.33389 9.34514 6.39558 9.34514H3.29182V9.10644C3.29438 8.284 3.62213 7.49595 4.20361 6.91446C4.78525 6.33298 5.57315 6.00505 6.39558 6.00268H15.946C16.7685 6.00508 17.5564 6.33299 18.138 6.91446C18.7195 7.49595 19.0473 8.284 19.0498 9.10644V14.8366Z" fill="#9398B2"/>
</svg>
