<svg width="32" height="32" viewBox="0 0 32 32" fill="none" xmlns="http://www.w3.org/2000/svg">
<path d="M28.455 0H24.045C22.14 0 21 1.14 21 3.045V7.455C21 9.36 22.14 10.5 24.045 10.5H28.455C30.36 10.5 31.5 9.36 31.5 7.455V3.045C31.5 1.14 30.36 0 28.455 0ZM28.785 4.965C28.605 5.145 28.365 5.235 28.125 5.235C27.885 5.235 27.645 5.145 27.465 4.965L27.195 4.695V8.055C27.195 8.58 26.775 9 26.25 9C25.725 9 25.305 8.58 25.305 8.055V4.695L25.035 4.965C24.675 5.325 24.075 5.325 23.715 4.965C23.355 4.605 23.355 4.005 23.715 3.645L25.59 1.77C25.665 1.695 25.77 1.635 25.875 1.59C25.905 1.575 25.935 1.575 25.965 1.56C26.04 1.53 26.115 1.515 26.205 1.515C26.235 1.515 26.265 1.515 26.295 1.515C26.4 1.515 26.49 1.53 26.595 1.575C26.61 1.575 26.61 1.575 26.625 1.575C26.73 1.62 26.82 1.68 26.895 1.755C26.91 1.77 26.91 1.77 26.925 1.77L28.8 3.645C29.16 4.005 29.16 4.605 28.785 4.965Z" fill="#FA8443"/>
<path d="M10.4997 14.07C12.4713 14.07 14.0697 12.4716 14.0697 10.5C14.0697 8.52828 12.4713 6.92993 10.4997 6.92993C8.52799 6.92993 6.92969 8.52828 6.92969 10.5C6.92969 12.4716 8.52799 14.07 10.4997 14.07Z" fill="#FA8443"/>
<path d="M28.455 10.5H27.75V17.415L27.555 17.25C26.385 16.245 24.495 16.245 23.325 17.25L17.085 22.605C15.915 23.61 14.025 23.61 12.855 22.605L12.345 22.185C11.28 21.255 9.585 21.165 8.385 21.975L2.775 25.74C2.445 24.9 2.25 23.925 2.25 22.785V10.215C2.25 5.985 4.485 3.75 8.715 3.75H21V3.045C21 2.445 21.105 1.935 21.345 1.5H8.715C3.255 1.5 0 4.755 0 10.215V22.785C0 24.42 0.285 25.845 0.84 27.045C2.13 29.895 4.89 31.5 8.715 31.5H21.285C26.745 31.5 30 28.245 30 22.785V10.155C29.565 10.395 29.055 10.5 28.455 10.5Z" fill="#FA8443"/>
</svg>
