<svg width="20" height="18" viewBox="0 0 20 18" fill="none" xmlns="http://www.w3.org/2000/svg">
<path d="M9.539 1.30103H3C1.89543 1.30103 1 2.19646 1 3.30103V14.6202C1 15.7247 1.89543 16.6202 3 16.6202H16.4064C17.511 16.6202 18.4064 15.7247 18.4064 14.6202V9.81161" stroke="white" stroke-width="0.9"/>
<path d="M12.1663 13.8482V12.681C12.1663 12.0619 11.9291 11.4682 11.5067 11.0304C11.0844 10.5926 10.5116 10.3467 9.91429 10.3467H6.53622C5.93895 10.3467 5.36613 10.5926 4.94379 11.0304C4.52145 11.4682 4.28418 12.0619 4.28418 12.681V13.8482" stroke="white" stroke-width="0.9" stroke-linecap="round" stroke-linejoin="round"/>
<path d="M8.22519 8.0122C9.46896 8.0122 10.4772 6.96708 10.4772 5.67786C10.4772 4.38863 9.46896 3.34351 8.22519 3.34351C6.98142 3.34351 5.97314 4.38863 5.97314 5.67786C5.97314 6.96708 6.98142 8.0122 8.22519 8.0122Z" stroke="white" stroke-width="0.9" stroke-linecap="round" stroke-linejoin="round"/>
<path d="M14.6068 7.42863C14.0417 7.25373 13.5298 6.93015 13.1212 6.48938C13.2527 6.32772 13.3346 6.12908 13.3566 5.91886C13.3785 5.70864 13.3395 5.49641 13.2444 5.30933C13.1493 5.12225 13.0026 4.96883 12.8229 4.86869C12.6433 4.76856 12.4389 4.72627 12.2359 4.74723C12.1896 4.51244 12.1664 4.2734 12.1665 4.03376C12.1665 3.66366 12.2212 3.30666 12.323 2.97126H12.3373C12.5116 2.97132 12.6829 2.92535 12.8352 2.83769C12.9875 2.75004 13.1158 2.62359 13.2079 2.47029C13.2999 2.31699 13.3528 2.14189 13.3614 1.96153C13.3701 1.78117 13.3343 1.6015 13.2573 1.43949C13.6579 1.05288 14.1423 0.771847 14.6697 0.620117C14.7555 0.794797 14.8863 0.941457 15.0475 1.04387C15.2088 1.14629 15.3942 1.20047 15.5833 1.20042C15.7724 1.20047 15.9579 1.14629 16.1191 1.04387C16.2804 0.941457 16.4111 0.794797 16.497 0.620117C17.0243 0.771847 17.5087 1.05288 17.9093 1.43949C17.8318 1.60263 17.796 1.78367 17.8053 1.96527C17.8146 2.14688 17.8687 2.32296 17.9625 2.47667C18.0563 2.63038 18.1865 2.75657 18.3408 2.84317C18.4951 2.92977 18.6682 2.97387 18.8436 2.97126C18.9477 3.31511 19.0004 3.6734 19.0001 4.03376C19.0001 4.27814 18.9762 4.51685 18.9308 4.74741C18.7278 4.72644 18.5234 4.76874 18.3437 4.86887C18.164 4.96901 18.0173 5.12243 17.9222 5.30951C17.8271 5.49659 17.7881 5.70882 17.81 5.91904C17.832 6.12925 17.914 6.3279 18.0455 6.48956C17.6368 6.93026 17.1249 7.25378 16.5598 7.42863C16.4935 7.21423 16.3631 7.02722 16.1876 6.89453C16.0121 6.76185 15.8005 6.69036 15.5833 6.69036C15.3661 6.69036 15.1545 6.76185 14.979 6.89453C14.8035 7.02722 14.6731 7.21423 14.6068 7.42863Z" stroke="white" stroke-width="0.6" stroke-linejoin="round"/>
<path d="M15.5831 5.27336C15.7401 5.27336 15.8956 5.2413 16.0407 5.179C16.1858 5.11671 16.3177 5.0254 16.4287 4.9103C16.5398 4.79519 16.6278 4.65854 16.6879 4.50815C16.748 4.35775 16.779 4.19656 16.779 4.03378C16.779 3.87099 16.748 3.7098 16.6879 3.55941C16.6278 3.40902 16.5398 3.27236 16.4287 3.15726C16.3177 3.04215 16.1858 2.95084 16.0407 2.88855C15.8956 2.82625 15.7401 2.79419 15.5831 2.79419C15.2659 2.79419 14.9617 2.92479 14.7375 3.15726C14.5132 3.38973 14.3872 3.70502 14.3872 4.03378C14.3872 4.36254 14.5132 4.67783 14.7375 4.9103C14.9617 5.14276 15.2659 5.27336 15.5831 5.27336Z" stroke="white" stroke-width="0.6" stroke-linejoin="round"/>
</svg>
