<svg width="20" height="14" viewBox="0 0 20 14" fill="none" xmlns="http://www.w3.org/2000/svg">
<path d="M10.9 1V2.71429M10.9 11.2857V13M10.9 6.14286V7.85714M1 4.42857C1.71608 4.42857 2.40284 4.69949 2.90919 5.18172C3.41554 5.66396 3.7 6.31801 3.7 7C3.7 7.68199 3.41554 8.33604 2.90919 8.81827C2.40284 9.30051 1.71608 9.57143 1 9.57143V11.2857C1 11.7404 1.18964 12.1764 1.52721 12.4979C1.86477 12.8194 2.32261 13 2.8 13H17.2C17.6774 13 18.1352 12.8194 18.4728 12.4979C18.8104 12.1764 19 11.7404 19 11.2857V9.57143C18.2839 9.57143 17.5972 9.30051 17.0908 8.81827C16.5845 8.33604 16.3 7.68199 16.3 7C16.3 6.31801 16.5845 5.66396 17.0908 5.18172C17.5972 4.69949 18.2839 4.42857 19 4.42857V2.71429C19 2.25963 18.8104 1.82359 18.4728 1.5021C18.1352 1.18061 17.6774 1 17.2 1H2.8C2.32261 1 1.86477 1.18061 1.52721 1.5021C1.18964 1.82359 1 2.25963 1 2.71429V4.42857Z" stroke="#9398B2" stroke-linecap="round" stroke-linejoin="round"/>
</svg>
