<svg width="22" height="22" viewBox="0 0 22 22" fill="none" xmlns="http://www.w3.org/2000/svg">
<path d="M19.1818 4.0769H2.81818C1.81403 4.0769 1 4.7657 1 5.61537V11.7692C1 12.6189 1.81403 13.3077 2.81818 13.3077H19.1818C20.186 13.3077 21 12.6189 21 11.7692V5.61537C21 4.7657 20.186 4.0769 19.1818 4.0769Z" stroke="#42A7C3" stroke-width="1.5" stroke-linecap="round" stroke-linejoin="round"/>
<path d="M19.1818 13.3076H2.81818C1.81403 13.3076 1 13.9964 1 14.8461V17.923C1 18.7727 1.81403 19.4615 2.81818 19.4615H19.1818C20.186 19.4615 21 18.7727 21 17.923V14.8461C21 13.9964 20.186 13.3076 19.1818 13.3076Z" stroke="#42A7C3" stroke-width="1.5" stroke-linecap="round" stroke-linejoin="round"/>
<path d="M19.1818 4.07692H2.81818C2.33639 4.07578 1.87471 3.91333 1.53402 3.62506C1.19334 3.33679 1.00135 2.94614 1 2.53846C1.00135 2.13079 1.19334 1.74014 1.53402 1.45187C1.87471 1.1636 2.33639 1.00114 2.81818 1H19.1818C19.6636 1.00114 20.1253 1.1636 20.466 1.45187C20.8067 1.74014 20.9987 2.13079 21 2.53846C20.9987 2.94614 20.8067 3.33679 20.466 3.62506C20.1253 3.91333 19.6636 4.07578 19.1818 4.07692ZM4.63636 19.4615V20.5192C4.63636 20.6467 4.5765 20.769 4.46995 20.8592C4.36339 20.9493 4.21887 21 4.06818 21H2.47727C2.32658 21 2.18206 20.9493 2.07551 20.8592C1.96895 20.769 1.90909 20.6467 1.90909 20.5192V19.4615H4.63636ZM20.0909 19.4615V20.5192C20.0909 20.6467 20.031 20.769 19.9245 20.8592C19.8179 20.9493 19.6734 21 19.5227 21H17.9318C17.7811 21 17.6366 20.9493 17.5301 20.8592C17.4235 20.769 17.3636 20.6467 17.3636 20.5192V19.4615H20.0909Z" stroke="#42A7C3" stroke-width="1.3" stroke-linecap="round" stroke-linejoin="round"/>
<path d="M17.3661 17.1537C17.8682 17.1537 18.2752 16.8093 18.2752 16.3845C18.2752 15.9596 17.8682 15.6152 17.3661 15.6152C16.864 15.6152 16.457 15.9596 16.457 16.3845C16.457 16.8093 16.864 17.1537 17.3661 17.1537Z" stroke="#42A7C3" stroke-width="1.5" stroke-linejoin="round"/>
<path d="M4.63565 17.1537C5.13773 17.1537 5.54474 16.8093 5.54474 16.3845C5.54474 15.9596 5.13773 15.6152 4.63565 15.6152C4.13358 15.6152 3.72656 15.9596 3.72656 16.3845C3.72656 16.8093 4.13358 17.1537 4.63565 17.1537Z" stroke="#42A7C3" stroke-width="1.5" stroke-linejoin="round"/>
<path d="M11 4.07679V13.3076M1 2.53833V16.3845M21 2.53833V16.3845" stroke="#42A7C3" stroke-width="1.5" stroke-linecap="round" stroke-linejoin="round"/>
</svg>
