<svg width="21" height="20" viewBox="0 0 21 20" fill="none" xmlns="http://www.w3.org/2000/svg">
<path d="M6.30566 4.27075C5.87858 4.27075 5.52441 3.95909 5.52441 3.58325V0.833252C5.52441 0.457419 5.87858 0.145752 6.30566 0.145752C6.73275 0.145752 7.08691 0.457419 7.08691 0.833252V3.58325C7.08691 3.95909 6.73275 4.27075 6.30566 4.27075Z" fill="#42A7C3"/>
<path d="M14.6357 4.27075C14.2087 4.27075 13.8545 3.95909 13.8545 3.58325V0.833252C13.8545 0.457419 14.2087 0.145752 14.6357 0.145752C15.0628 0.145752 15.417 0.457419 15.417 0.833252V3.58325C15.417 3.95909 15.0628 4.27075 14.6357 4.27075Z" fill="#42A7C3"/>
<path d="M19.3265 8.02014H1.61816C1.19108 8.02014 0.836914 7.70847 0.836914 7.33264C0.836914 6.95681 1.19108 6.64514 1.61816 6.64514H19.3265C19.7536 6.64514 20.1077 6.95681 20.1077 7.33264C20.1077 7.70847 19.7536 8.02014 19.3265 8.02014Z" fill="#42A7C3"/>
<path d="M14.6374 19.8542H6.30404C2.50195 19.8542 0.314453 17.9292 0.314453 14.5834V6.79171C0.314453 3.44587 2.50195 1.52087 6.30404 1.52087H14.6374C18.4395 1.52087 20.627 3.44587 20.627 6.79171V14.5834C20.627 17.9292 18.4395 19.8542 14.6374 19.8542ZM6.30404 2.89587C3.32487 2.89587 1.87695 4.17004 1.87695 6.79171V14.5834C1.87695 17.205 3.32487 18.4792 6.30404 18.4792H14.6374C17.6165 18.4792 19.0645 17.205 19.0645 14.5834V6.79171C19.0645 4.17004 17.6165 2.89587 14.6374 2.89587H6.30404Z" fill="#42A7C3"/>
<path d="M6.82487 12.2917C6.68945 12.2917 6.55403 12.2642 6.42903 12.2184C6.30403 12.1726 6.18946 12.1084 6.0853 12.0259C5.99155 11.9342 5.91861 11.8334 5.86652 11.7234C5.81444 11.6134 5.7832 11.4942 5.7832 11.3751C5.7832 11.1367 5.8978 10.8984 6.0853 10.7242C6.18946 10.6417 6.30403 10.5775 6.42903 10.5317C6.61653 10.4584 6.82488 10.44 7.03322 10.4767C7.09572 10.4859 7.15821 10.5042 7.22071 10.5317C7.28321 10.55 7.3457 10.5776 7.4082 10.6142C7.46028 10.6509 7.51236 10.6876 7.56444 10.7242C7.60611 10.7701 7.65819 10.8159 7.68944 10.8617C7.73111 10.9167 7.76238 10.9717 7.78322 11.0267C7.81447 11.0817 7.8353 11.1367 7.84571 11.1917C7.85613 11.2559 7.86654 11.3109 7.86654 11.3751C7.86654 11.6134 7.75194 11.8517 7.56444 12.0259C7.36653 12.1909 7.0957 12.2917 6.82487 12.2917Z" fill="#42A7C3"/>
<path d="M10.4723 12.2916C10.2015 12.2916 9.93067 12.1907 9.73276 12.0257C9.69109 11.9799 9.64943 11.934 9.60776 11.8882C9.56609 11.8332 9.53482 11.7782 9.51398 11.7232C9.48273 11.6682 9.4619 11.6132 9.45149 11.5582C9.44107 11.4941 9.43066 11.4391 9.43066 11.3749C9.43066 11.2557 9.4619 11.1365 9.51398 11.0265C9.56607 10.9165 9.63901 10.8157 9.73276 10.7241C10.0244 10.4674 10.4932 10.3849 10.8682 10.5315C11.0036 10.5774 11.1077 10.6416 11.2119 10.7241C11.3994 10.8982 11.514 11.1366 11.514 11.3749C11.514 11.4391 11.5036 11.4941 11.4932 11.5582C11.4828 11.6132 11.4619 11.6682 11.4307 11.7232C11.4098 11.7782 11.3786 11.8332 11.3369 11.8882C11.2952 11.934 11.2536 11.9799 11.2119 12.0257C11.1077 12.1082 11.0036 12.1724 10.8682 12.2182C10.7432 12.2641 10.6077 12.2916 10.4723 12.2916Z" fill="#42A7C3"/>
<path d="M6.82487 15.5002C6.68945 15.5002 6.55403 15.4727 6.42903 15.4268C6.30403 15.381 6.18946 15.3168 6.0853 15.2343C5.99155 15.1427 5.91861 15.051 5.86652 14.9318C5.81444 14.8218 5.7832 14.7027 5.7832 14.5835C5.7832 14.3452 5.8978 14.1068 6.0853 13.9327C6.18946 13.8502 6.30403 13.786 6.42903 13.7402C6.81445 13.5935 7.27278 13.676 7.56444 13.9327C7.60611 13.9785 7.65819 14.0243 7.68944 14.0702C7.73111 14.1252 7.76238 14.1802 7.78322 14.2352C7.81447 14.2902 7.8353 14.3452 7.84571 14.4093C7.85613 14.4643 7.86654 14.5285 7.86654 14.5835C7.86654 14.8218 7.75194 15.0602 7.56444 15.2343C7.36653 15.3993 7.0957 15.5002 6.82487 15.5002Z" fill="#42A7C3"/>
</svg>
