<svg width="33" height="23" viewBox="0 0 33 23" fill="none" xmlns="http://www.w3.org/2000/svg">
<path d="M30.9707 0.5H2.9707C2.44027 0.5 1.93156 0.731785 1.55649 1.14437C1.18142 1.55695 0.970703 2.11652 0.970703 2.7V20.3C0.970703 20.8835 1.18142 21.4431 1.55649 21.8556C1.93156 22.2682 2.44027 22.5 2.9707 22.5H30.9707C31.5011 22.5 32.0098 22.2682 32.3849 21.8556C32.76 21.4431 32.9707 20.8835 32.9707 20.3V2.7C32.9707 2.11652 32.76 1.55695 32.3849 1.14437C32.0098 0.731785 31.5011 0.5 30.9707 0.5ZM30.9707 7.1C29.9471 7.00871 28.9881 6.51277 28.2711 5.70391C27.5542 4.89504 27.1278 3.82796 27.0707 2.7H30.9707V7.1ZM30.9707 8.882V14.195C29.5308 14.2901 28.1731 14.9651 27.1568 16.0911C26.1405 17.2172 25.5367 18.7155 25.4607 20.3H8.4607C8.38751 18.7171 7.7876 17.219 6.77521 16.0912C5.76282 14.9634 4.40869 14.2846 2.9707 14.184V8.86C4.41879 8.76369 5.78316 8.08093 6.80064 6.94342C7.81812 5.80592 8.41662 4.29425 8.4807 2.7H25.4807C25.5443 4.29069 26.14 5.79943 27.1533 6.93642C28.1667 8.07341 29.5262 8.75847 30.9707 8.86V8.882ZM6.8707 2.7C6.81365 3.82796 6.38722 4.89504 5.67027 5.70391C4.95332 6.51277 3.99435 7.00871 2.9707 7.1V2.7H6.8707ZM2.9707 15.966C3.98471 16.0554 4.93592 16.542 5.65155 17.3372C6.36718 18.1325 6.79976 19.1837 6.8707 20.3H2.9707V15.966ZM27.0707 20.3C27.1416 19.1837 27.5742 18.1325 28.2899 17.3372C29.0055 16.542 29.9567 16.0554 30.9707 15.966V20.3H27.0707Z" fill="#42A7C3"/>
<path d="M16.9709 3.63501C13.5009 3.63501 10.6709 7.16601 10.6709 11.5C10.6709 15.834 13.5009 19.365 16.9709 19.365C20.4409 19.365 23.2709 15.834 23.2709 11.5C23.2709 7.16601 20.4409 3.63501 16.9709 3.63501ZM16.9709 17.594C14.3809 17.594 12.2709 14.855 12.2709 11.489C12.2709 8.12301 14.3809 5.38401 16.9709 5.38401C19.5609 5.38401 21.6709 8.12301 21.6709 11.489C21.6709 14.855 19.5609 17.605 16.9709 17.605V17.594Z" fill="#42A7C3"/>
</svg>
