<svg width="16" height="13" viewBox="0 0 16 13" fill="none" xmlns="http://www.w3.org/2000/svg">
<path d="M12.0557 1.44801C14.3523 2.1717 16 4.15048 16 6.47757C16 8.06158 15.236 9.48528 14.0237 10.4607L13.918 10.5416L13.7503 10.6665L13.7331 10.6788C13.3074 11.0173 13.5709 11.7293 13.9651 12.2988L14.0383 12.4004C14.0629 12.4339 14.088 12.4665 14.1134 12.4985L14.19 12.5921L14.2577 12.6708L14.3086 12.7339C14.4614 12.9324 14.4466 13.0176 14.2646 12.997L14.2051 12.9878C14.1688 12.9806 14.1327 12.9721 14.0969 12.9622C13.7077 12.8581 13.3298 12.7104 12.9691 12.5216L12.8343 12.4481C12.7909 12.4235 12.7486 12.3991 12.7077 12.3748L12.5891 12.3025L12.4771 12.2311L12.0411 11.9428L11.9551 11.8893L11.8714 11.841C11.6509 11.7191 11.4486 11.6585 11.2051 11.7087L11.1569 11.7198C10.6193 11.8057 10.0743 11.8242 9.53286 11.7748C12.0534 10.7225 13.8026 8.4182 13.8026 5.74495C13.8026 4.13202 13.166 2.65355 12.1071 1.50339L12.0557 1.44801ZM6.45743 0C10.0237 0 12.9151 2.61294 12.9151 5.83511C12.9151 9.0582 10.0237 11.6708 6.45743 11.6708C6.13457 11.6708 5.818 11.6493 5.50829 11.6084L5.32114 11.5807C5.06257 11.5145 4.84829 11.5591 4.62314 11.6699L4.538 11.7139L4.45114 11.7641L4.362 11.8188L4.12486 11.9748L3.96914 12.0782L3.80114 12.1871L3.68114 12.2616L3.554 12.3373L3.48743 12.3751L3.34829 12.4511C2.92227 12.6751 2.47421 12.8467 2.01257 12.9628L1.94343 12.9764C1.70886 13.0142 1.68114 12.9219 1.86171 12.6893L1.916 12.6225L1.94714 12.5865C1.97286 12.557 1.99857 12.5268 2.02429 12.4961L2.1 12.4013L2.17486 12.3025L2.24714 12.2004L2.31714 12.0955L2.38343 11.9884C2.39429 11.9705 2.40486 11.9524 2.41514 11.9342L2.47543 11.825C2.75571 11.2942 2.86514 10.7364 2.49143 10.4404L2.21914 10.2373L2.17229 10.201C0.84 9.13236 0 7.57143 0 5.83511C0 2.61294 2.89057 0 6.45743 0Z" fill="#53D023"/>
</svg>
