<svg width="21" height="21" viewBox="0 0 21 21" fill="none" xmlns="http://www.w3.org/2000/svg">
<path d="M10.9248 0.5C5.4148 0.5 0.924805 4.99 0.924805 10.5C0.924805 16.01 5.4148 20.5 10.9248 20.5C16.4348 20.5 20.9248 16.01 20.9248 10.5C20.9248 4.99 16.4348 0.5 10.9248 0.5ZM15.7048 8.2L10.0348 13.87C9.8948 14.01 9.7048 14.09 9.5048 14.09C9.3048 14.09 9.11481 14.01 8.9748 13.87L6.1448 11.04C5.8548 10.75 5.8548 10.27 6.1448 9.98C6.4348 9.69 6.9148 9.69 7.2048 9.98L9.5048 12.28L14.6448 7.14C14.9348 6.85 15.4148 6.85 15.7048 7.14C15.9948 7.43 15.9948 7.9 15.7048 8.2Z" fill="#FA8443"/>
</svg>
