<svg width="24" height="23" viewBox="0 0 24 23" fill="none" xmlns="http://www.w3.org/2000/svg">
<path d="M12.471 21.802C6.78811 21.802 2.16895 17.1829 2.16895 11.5C2.16895 5.81704 6.78811 1.19788 12.471 1.19788C18.1539 1.19788 22.7731 5.81704 22.7731 11.5C22.7731 17.1829 18.1539 21.802 12.471 21.802ZM12.471 2.63538C7.58353 2.63538 3.60645 6.61246 3.60645 11.5C3.60645 16.3875 7.58353 20.3645 12.471 20.3645C17.3585 20.3645 21.3356 16.3875 21.3356 11.5C21.3356 6.61246 17.3585 2.63538 12.471 2.63538Z" fill="#42A7C3"/>
<path d="M16.0264 15.2663C15.9018 15.2663 15.7772 15.2376 15.6622 15.1609L12.6914 13.388C11.9535 12.9471 11.4072 11.9792 11.4072 11.1263V7.19714C11.4072 6.80423 11.7331 6.47839 12.126 6.47839C12.5189 6.47839 12.8447 6.80423 12.8447 7.19714V11.1263C12.8447 11.4713 13.1322 11.9792 13.4293 12.1517L16.4001 13.9246C16.7451 14.1259 16.8506 14.5667 16.6493 14.9117C16.5056 15.1417 16.266 15.2663 16.0264 15.2663Z" fill="#42A7C3"/>
</svg>
