<svg width="22" height="23" viewBox="0 0 22 23" fill="none" xmlns="http://www.w3.org/2000/svg">
<path d="M4.52941 22.5H3.23529L4.01176 21.4C4.52941 20.6438 4.85294 19.6813 5.04706 18.5125C1.81176 16.9313 0 13.975 0 10.125C0 4.2125 4.20588 0.5 11 0.5C17.7941 0.5 22 4.2125 22 10.125C22 16.175 17.8588 19.75 11 19.75H10.5471C9.51176 21.0562 7.7 22.5 4.52941 22.5ZM11 1.875C4.91765 1.875 1.29412 4.96875 1.29412 10.125C1.29412 14.525 3.81765 16.5875 5.95294 17.4813L6.40588 17.6875L6.34118 18.2375C6.21176 19.3375 6.01765 20.3 5.62941 21.125C7.76471 20.85 8.99412 19.6812 9.70588 18.7188L9.9 18.4437H11C19.7353 18.4437 20.7059 12.6688 20.7059 10.1938C20.7059 4.96875 17.0824 1.875 11 1.875Z" fill="#42A7C3"/>
</svg>
