<svg width="19" height="19" viewBox="0 0 19 19" fill="none" xmlns="http://www.w3.org/2000/svg">
<g clip-path="url(#clip0_945_3381)">
<path d="M9.7168 1.48938V17.6691" stroke="#FE9C69" stroke-width="1.47088" stroke-linecap="round" stroke-linejoin="round"/>
<path d="M13.3945 4.4325H7.87873C7.19605 4.4325 6.54133 4.70369 6.05861 5.18641C5.57588 5.66914 5.30469 6.32386 5.30469 7.00653C5.30469 7.68921 5.57588 8.34393 6.05861 8.82666C6.54133 9.30938 7.19605 9.58057 7.87873 9.58057H11.5559C12.2386 9.58057 12.8933 9.85177 13.376 10.3345C13.8588 10.8172 14.13 11.4719 14.13 12.1546C14.13 12.8373 13.8588 13.492 13.376 13.9747C12.8933 14.4575 12.2386 14.7287 11.5559 14.7287H5.30469" stroke="#FE9C69" stroke-width="1.47088" stroke-linecap="round" stroke-linejoin="round"/>
</g>
<defs>
<clipPath id="clip0_945_3381">
<rect width="17.6506" height="17.6506" fill="white" transform="translate(0.892578 0.754517)"/>
</clipPath>
</defs>
</svg>
