<svg width="135" height="51" viewBox="0 0 135 51" fill="none" xmlns="http://www.w3.org/2000/svg">
<path d="M10.707 22.761C10.8407 25.3864 11.8278 27.6538 14.1989 29.3368C15.8046 30.4765 19.0874 31.2572 23.2776 29.3368C27.4678 27.4163 34.157 17.1112 36.1391 14.3804C41.3769 7.16428 47.4139 4.91928 55.9261 5.82548C61.3966 6.40786 66.0358 8.16002 72.2795 14.8463C81.3 24.5062 85.432 45.05 76.7025 36.5532C71.5962 31.5831 82.6385 34.3415 86.8287 22.4693C88.7546 17.0127 91.1353 11.4119 94.8599 9.89876" stroke="#D1F366" stroke-width="0.931152"/>
<path d="M101.025 5.78789C101.704 5.25758 103.282 4.98971 103.759 5.77993C104.25 6.59272 103.45 8.14752 102.771 8.67783L100.455 10.4859L100.859 16.0156C100.881 16.3275 100.755 16.6319 100.526 16.8102L99.4101 17.6817C99.1996 17.846 98.9076 17.7351 98.826 17.4599L97.4606 12.8242L95.417 14.4198L95.3447 16.3901C95.3393 16.5273 95.2779 16.655 95.1778 16.7331L94.3443 17.3839C94.1905 17.504 93.9798 17.4592 93.8625 17.2651C93.857 17.256 93.8429 17.2238 93.8323 17.1889L92.9553 14.2153L90.8289 12.2173C90.804 12.1935 90.7827 12.167 90.7649 12.1377C90.6599 11.9638 90.6988 11.7241 90.8526 11.604L91.6861 10.9532C91.7862 10.8751 91.9131 10.8558 92.0276 10.8992L93.6712 11.5299L95.7147 9.93426L92.3991 6.82129C92.202 6.63529 92.2162 6.28628 92.4267 6.12191L93.5428 5.25046C93.7712 5.07214 94.0656 5.04669 94.3148 5.18334L98.7096 7.59592L101.025 5.78789Z" fill="#FA8443"/>
<path d="M1.70028 12.9284H8.21463C9.77151 12.9284 11.144 13.2289 12.3322 13.8298C13.534 14.417 14.4627 15.2501 15.1182 16.329C15.7874 17.4079 16.122 18.6643 16.122 20.0983C16.122 21.5323 15.7874 22.7887 15.1182 23.8676C14.4627 24.9465 13.534 25.7864 12.3322 26.3873C11.144 26.9746 9.77151 27.2682 8.21463 27.2682H1.70028V12.9284ZM8.05074 24.5436C9.48472 24.5436 10.6251 24.1476 11.4718 23.3555C12.3322 22.5497 12.7624 21.464 12.7624 20.0983C12.7624 18.7326 12.3322 17.6537 11.4718 16.8616C10.6251 16.0559 9.48472 15.653 8.05074 15.653H5.01891V24.5436H8.05074ZM29.5024 16.2471V27.2682H26.4706V25.9571C26.0472 26.4351 25.5419 26.8039 24.9547 27.0633C24.3674 27.3092 23.7324 27.4321 23.0495 27.4321C21.6019 27.4321 20.4547 27.0155 19.608 26.1825C18.7613 25.3494 18.3379 24.1134 18.3379 22.4746V16.2471H21.5336V22.0035C21.5336 23.7789 22.2779 24.6665 23.7665 24.6665C24.5313 24.6665 25.1459 24.4207 25.6102 23.9291C26.0745 23.4238 26.3067 22.6795 26.3067 21.6962V16.2471H29.5024ZM38.9774 16.0832C40.0016 16.0832 40.9303 16.3222 41.7634 16.8002C42.6101 17.2645 43.2725 17.9269 43.7505 18.7873C44.2285 19.634 44.4675 20.6241 44.4675 21.7576C44.4675 22.8912 44.2285 23.8881 43.7505 24.7485C43.2725 25.5952 42.6101 26.2576 41.7634 26.7356C40.9303 27.1999 40.0016 27.4321 38.9774 27.4321C37.4615 27.4321 36.3075 26.9541 35.5154 25.9981V27.2682H32.463V12.0681H35.6588V17.4147C36.4645 16.527 37.5707 16.0832 38.9774 16.0832ZM38.4243 24.8099C39.2437 24.8099 39.9129 24.5368 40.4318 23.9905C40.9645 23.4306 41.2308 22.6863 41.2308 21.7576C41.2308 20.829 40.9645 20.0915 40.4318 19.5452C39.9129 18.9853 39.2437 18.7053 38.4243 18.7053C37.6049 18.7053 36.9288 18.9853 36.3962 19.5452C35.8773 20.0915 35.6178 20.829 35.6178 21.7576C35.6178 22.6863 35.8773 23.4306 36.3962 23.9905C36.9288 24.5368 37.6049 24.8099 38.4243 24.8099ZM57.7917 16.2471V27.2682H54.7394V25.9981C53.9473 26.9541 52.8001 27.4321 51.2979 27.4321C50.26 27.4321 49.3176 27.1999 48.4709 26.7356C47.6378 26.2712 46.9823 25.6089 46.5043 24.7485C46.0263 23.8881 45.7873 22.8912 45.7873 21.7576C45.7873 20.6241 46.0263 19.6272 46.5043 18.7668C46.9823 17.9064 47.6378 17.244 48.4709 16.7797C49.3176 16.3154 50.26 16.0832 51.2979 16.0832C52.7045 16.0832 53.8039 16.527 54.596 17.4147V16.2471H57.7917ZM51.851 24.8099C52.6567 24.8099 53.3259 24.5368 53.8586 23.9905C54.3912 23.4306 54.6575 22.6863 54.6575 21.7576C54.6575 20.829 54.3912 20.0915 53.8586 19.5452C53.3259 18.9853 52.6567 18.7053 51.851 18.7053C51.0316 18.7053 50.3556 18.9853 49.8229 19.5452C49.2903 20.0915 49.024 20.829 49.024 21.7576C49.024 22.6863 49.2903 23.4306 49.8229 23.9905C50.3556 24.5368 51.0316 24.8099 51.851 24.8099ZM60.7504 16.2471H63.9461V27.2682H60.7504V16.2471ZM62.3483 14.7107C61.761 14.7107 61.2831 14.54 60.9143 14.1985C60.5456 13.8571 60.3612 13.4337 60.3612 12.9284C60.3612 12.4231 60.5456 11.9998 60.9143 11.6584C61.2831 11.3169 61.761 11.1462 62.3483 11.1462C62.9355 11.1462 63.4135 11.3101 63.7823 11.6379C64.151 11.9656 64.3354 12.3753 64.3354 12.867C64.3354 13.3996 64.151 13.8435 63.7823 14.1985C63.4135 14.54 62.9355 14.7107 62.3483 14.7107ZM77.6505 27.514C76.517 27.514 75.4176 27.3638 74.3524 27.0633C73.3008 26.7492 72.4541 26.3463 71.8122 25.8547L72.9389 23.3555C73.5535 23.8062 74.2841 24.1681 75.1308 24.4412C75.9776 24.7143 76.8243 24.8509 77.671 24.8509C78.6133 24.8509 79.3098 24.7143 79.7605 24.4412C80.2112 24.1544 80.4365 23.7789 80.4365 23.3145C80.4365 22.9731 80.3 22.6931 80.0268 22.4746C79.7673 22.2424 79.4259 22.0581 79.0026 21.9215C78.5929 21.7849 78.0329 21.6347 77.3228 21.4708C76.2302 21.2114 75.3357 20.9519 74.6392 20.6924C73.9427 20.4329 73.3418 20.0164 72.8365 19.4428C72.3448 18.8692 72.099 18.1044 72.099 17.1484C72.099 16.3154 72.3243 15.5642 72.775 14.895C73.2257 14.2122 73.9017 13.6727 74.8031 13.2767C75.7181 12.8806 76.8311 12.6826 78.1422 12.6826C79.0572 12.6826 79.9517 12.7919 80.8258 13.0104C81.6998 13.2289 82.4646 13.543 83.1201 13.9527L82.0958 16.4724C80.7711 15.7213 79.4464 15.3457 78.1217 15.3457C77.193 15.3457 76.5033 15.4959 76.0527 15.7964C75.6156 16.0968 75.3971 16.4929 75.3971 16.9845C75.3971 17.4762 75.6498 17.8449 76.1551 18.0908C76.6741 18.3229 77.4593 18.5551 78.5109 18.7873C79.6035 19.0467 80.498 19.3062 81.1945 19.5657C81.891 19.8252 82.4851 20.2349 82.9767 20.7948C83.482 21.3548 83.7347 22.1127 83.7347 23.0687C83.7347 23.8881 83.5025 24.6392 83.0382 25.3221C82.5875 25.9913 81.9046 26.5239 80.9896 26.9199C80.0746 27.316 78.9616 27.514 77.6505 27.514ZM96.962 16.2471V27.2682H93.9097V25.9981C93.1176 26.9541 91.9704 27.4321 90.4681 27.4321C89.4302 27.4321 88.4879 27.1999 87.6411 26.7356C86.8081 26.2712 86.1525 25.6089 85.6745 24.7485C85.1966 23.8881 84.9576 22.8912 84.9576 21.7576C84.9576 20.6241 85.1966 19.6272 85.6745 18.7668C86.1525 17.9064 86.8081 17.244 87.6411 16.7797C88.4879 16.3154 89.4302 16.0832 90.4681 16.0832C91.8748 16.0832 92.9742 16.527 93.7663 17.4147V16.2471H96.962ZM91.0212 24.8099C91.827 24.8099 92.4962 24.5368 93.0288 23.9905C93.5614 23.4306 93.8277 22.6863 93.8277 21.7576C93.8277 20.829 93.5614 20.0915 93.0288 19.5452C92.4962 18.9853 91.827 18.7053 91.0212 18.7053C90.2018 18.7053 89.5258 18.9853 88.9932 19.5452C88.4606 20.0915 88.1942 20.829 88.1942 21.7576C88.1942 22.6863 88.4606 23.4306 88.9932 23.9905C89.5258 24.5368 90.2018 24.8099 91.0212 24.8099ZM103.034 16.4929H105.861V18.9511H103.116V27.2682H99.9207V16.0012C99.9207 14.7448 100.289 13.7479 101.027 13.0104C101.778 12.2729 102.83 11.9042 104.182 11.9042C104.66 11.9042 105.11 11.9588 105.534 12.0681C105.971 12.1637 106.333 12.3071 106.619 12.4982L105.779 14.8131C105.411 14.5536 104.981 14.4239 104.489 14.4239C103.519 14.4239 103.034 14.9565 103.034 16.0217V16.4929ZM118.508 16.2471V27.2682H115.455V25.9981C114.663 26.9541 113.516 27.4321 112.014 27.4321C110.976 27.4321 110.033 27.1999 109.187 26.7356C108.354 26.2712 107.698 25.6089 107.22 24.7485C106.742 23.8881 106.503 22.8912 106.503 21.7576C106.503 20.6241 106.742 19.6272 107.22 18.7668C107.698 17.9064 108.354 17.244 109.187 16.7797C110.033 16.3154 110.976 16.0832 112.014 16.0832C113.42 16.0832 114.52 16.527 115.312 17.4147V16.2471H118.508ZM112.567 24.8099C113.373 24.8099 114.042 24.5368 114.574 23.9905C115.107 23.4306 115.373 22.6863 115.373 21.7576C115.373 20.829 115.107 20.0915 114.574 19.5452C114.042 18.9853 113.373 18.7053 112.567 18.7053C111.747 18.7053 111.071 18.9853 110.539 19.5452C110.006 20.0915 109.74 20.829 109.74 21.7576C109.74 22.6863 110.006 23.4306 110.539 23.9905C111.071 24.5368 111.747 24.8099 112.567 24.8099ZM124.519 17.7015C124.901 17.1689 125.413 16.766 126.055 16.4929C126.711 16.2198 127.462 16.0832 128.308 16.0832V19.0331C127.953 19.0058 127.714 18.9921 127.591 18.9921C126.676 18.9921 125.959 19.2516 125.44 19.7705C124.921 20.2759 124.662 21.0406 124.662 22.0649V27.2682H121.466V16.2471H124.519V17.7015ZM130.209 16.2471H133.404V27.2682H130.209V16.2471ZM131.806 14.7107C131.219 14.7107 130.741 14.54 130.372 14.1985C130.004 13.8571 129.819 13.4337 129.819 12.9284C129.819 12.4231 130.004 11.9998 130.372 11.6584C130.741 11.3169 131.219 11.1462 131.806 11.1462C132.394 11.1462 132.872 11.3101 133.24 11.6379C133.609 11.9656 133.794 12.3753 133.794 12.867C133.794 13.3996 133.609 13.8435 133.24 14.1985C132.872 14.54 132.394 14.7107 131.806 14.7107Z" fill="#42A7C3"/>
<path d="M89.3594 36.6427C89.125 36.5841 89.0078 36.3907 89.0078 36.0626C89.0078 35.7345 89.1719 35.4327 89.5 35.1573C89.3594 35.0577 89.2422 34.9288 89.1484 34.7706C89.0547 34.6066 89.0078 34.4425 89.0078 34.2784C89.0078 34.1144 89.0371 33.9825 89.0957 33.8829C89.1543 33.7775 89.2422 33.7072 89.3594 33.672C89.8164 33.9532 90.2764 34.0939 90.7393 34.0939C90.9209 34.0939 91.1641 34.0236 91.4688 33.8829C91.7793 33.7423 92.0107 33.672 92.1631 33.672C92.5381 33.672 92.8662 33.9122 93.1475 34.3927C93.4229 33.9122 93.7451 33.672 94.1143 33.672C94.2666 33.672 94.4951 33.7423 94.7998 33.8829C95.1104 34.0236 95.3564 34.0939 95.5381 34.0939C95.9834 34.0939 96.4434 33.9532 96.918 33.672C97.0645 33.672 97.167 33.7833 97.2256 34.006C97.249 34.088 97.2607 34.1964 97.2607 34.3312C97.2607 34.4601 97.2168 34.5978 97.1289 34.7443C96.9883 34.9786 96.8652 35.1163 96.7598 35.1573C96.8945 35.2394 97.0117 35.3654 97.1113 35.5353C97.2109 35.7052 97.2607 35.8546 97.2607 35.9835C97.2607 36.1124 97.249 36.2208 97.2256 36.3087C97.2021 36.3907 97.1758 36.4523 97.1465 36.4933C97.082 36.5695 97.0059 36.6193 96.918 36.6427C96.5605 36.2325 96.0684 36.0275 95.4414 36.0275L94.5361 36.0626C94.4658 36.1329 94.4307 36.5197 94.4307 37.2228C94.4307 37.9259 94.4629 38.4884 94.5273 38.9103C94.5918 39.3322 94.6709 39.6456 94.7646 39.8507C94.8643 40.0499 94.9609 40.2081 95.0547 40.3253C95.1484 40.4425 95.2275 40.5304 95.292 40.589C95.3564 40.6476 95.3887 40.7032 95.3887 40.756C95.3887 40.8029 95.3652 40.8527 95.3184 40.9054C95.2715 40.9581 95.2129 41.0109 95.1426 41.0636C95.0723 41.1163 94.9932 41.2159 94.9053 41.3624C94.8232 41.5031 94.7471 41.6759 94.6768 41.881C94.5127 42.3615 94.4307 43.0616 94.4307 43.9816C94.4307 44.8956 94.5068 45.5841 94.6592 46.047C94.8174 46.5099 95.0957 46.9318 95.4941 47.3126C95.4941 47.5236 95.3301 47.6818 95.002 47.7872C94.8789 47.8224 94.7061 47.84 94.4834 47.84C94.2666 47.84 94.041 47.755 93.8066 47.5851C93.5723 47.4152 93.4023 47.2482 93.2969 47.0841L93.1475 46.8292C92.9775 47.2511 92.6758 47.5529 92.2422 47.7345C92.0664 47.8048 91.8877 47.84 91.7061 47.84C91.5303 47.84 91.3779 47.8224 91.249 47.7872C91.126 47.7521 91.0352 47.7081 90.9766 47.6554C90.8477 47.5382 90.7744 47.424 90.7568 47.3126C91.1553 46.9318 91.4307 46.5099 91.583 46.047C91.7412 45.5782 91.8203 44.9894 91.8203 44.2804C91.8203 43.5656 91.7881 42.9943 91.7236 42.5665C91.6592 42.1329 91.5801 41.8195 91.4863 41.6261C91.3926 41.4327 91.2959 41.2833 91.1963 41.1779C91.1025 41.0665 91.0234 40.9816 90.959 40.923C90.8945 40.8644 90.8623 40.8087 90.8623 40.756C90.8623 40.7032 90.8945 40.6476 90.959 40.589C91.0234 40.5304 91.1025 40.4425 91.1963 40.3253C91.2959 40.2081 91.3926 40.047 91.4863 39.8419C91.709 39.3673 91.8203 38.6613 91.8203 37.7238C91.8203 36.7804 91.7852 36.2267 91.7148 36.0626C91.7148 36.0392 91.457 36.0275 90.9414 36.0275C90.4258 36.0275 90.0742 36.0773 89.8867 36.1769C89.6992 36.2706 89.5234 36.4259 89.3594 36.6427ZM101.269 44.1925C101.269 45.6749 101.635 46.4161 102.367 46.4161C103.146 46.4161 103.536 45.6456 103.536 44.1046C103.536 43.671 103.501 43.3077 103.431 43.0148C103.36 42.7218 103.287 42.5284 103.211 42.4347C103.135 42.3351 103.044 42.2472 102.938 42.171C102.839 42.089 102.783 42.0392 102.771 42.0216C102.771 41.9865 102.81 41.9337 102.886 41.8634C102.968 41.7872 103.056 41.6906 103.149 41.5734C103.249 41.4503 103.337 41.2159 103.413 40.8702C103.495 40.5187 103.536 40.0851 103.536 39.5695C103.536 38.1632 103.155 37.4601 102.394 37.4601C101.638 37.4601 101.26 38.1632 101.26 39.5695C101.26 40.0851 101.298 40.5187 101.374 40.8702C101.456 41.2159 101.544 41.4503 101.638 41.5734C101.731 41.6906 101.816 41.7872 101.893 41.8634C101.975 41.9337 102.016 41.9835 102.016 42.0128C102.016 42.0363 101.989 42.0656 101.937 42.1007C101.884 42.1359 101.822 42.1945 101.752 42.2765C101.682 42.3585 101.611 42.4669 101.541 42.6017C101.359 42.9415 101.269 43.4718 101.269 44.1925ZM106.454 42.7335C106.372 42.8917 106.308 43.1027 106.261 43.3663C106.22 43.63 106.199 43.9991 106.199 44.4738C106.199 44.9425 106.091 45.42 105.874 45.9064C105.657 46.3868 105.367 46.7765 105.004 47.0753C104.641 47.3741 104.236 47.6027 103.791 47.7609C103.346 47.9191 102.88 47.9982 102.394 47.9982C101.907 47.9982 101.438 47.9191 100.987 47.7609C100.542 47.6027 100.138 47.3741 99.7744 47.0753C99.417 46.7765 99.1299 46.3868 98.9131 45.9064C98.6963 45.42 98.5879 44.9366 98.5879 44.4562C98.5879 43.9698 98.5527 43.5861 98.4824 43.3048C98.418 43.0177 98.3359 42.8009 98.2363 42.6544C98.1426 42.5079 98.0459 42.3907 97.9463 42.3029C97.8525 42.2091 97.7705 42.1417 97.7002 42.1007C97.6357 42.0597 97.6035 42.0304 97.6035 42.0128C97.6035 41.9952 97.6357 41.9659 97.7002 41.9249C97.7705 41.8781 97.8525 41.8107 97.9463 41.7228C98.0459 41.6349 98.1426 41.5177 98.2363 41.3712C98.4707 41.0197 98.5879 40.4952 98.5879 39.798C98.5879 39.1007 98.6963 38.506 98.9131 38.0138C99.1299 37.5216 99.417 37.1232 99.7744 36.8185C100.138 36.5138 100.542 36.2823 100.987 36.1241C101.438 35.9601 101.907 35.8781 102.394 35.8781C102.88 35.8781 103.346 35.9601 103.791 36.1241C104.236 36.2823 104.641 36.5138 105.004 36.8185C105.367 37.1232 105.657 37.5216 105.874 38.0138C106.091 38.506 106.199 39.0011 106.199 39.4991C106.199 39.9972 106.229 40.3956 106.287 40.6945C106.352 40.9874 106.425 41.2101 106.507 41.3624C106.595 41.5089 106.68 41.629 106.762 41.7228C106.85 41.8107 106.923 41.8781 106.981 41.9249C107.046 41.9659 107.078 41.9982 107.078 42.0216C107.072 42.0275 107.02 42.0685 106.92 42.1447C106.826 42.215 106.747 42.2911 106.683 42.3732C106.618 42.4552 106.542 42.5753 106.454 42.7335ZM113.837 35.8781C114.37 35.8781 114.851 36.1915 115.278 36.8185C115.466 36.4435 115.75 36.1622 116.131 35.9747C116.271 35.9103 116.415 35.8781 116.562 35.8781C116.714 35.8781 116.849 35.8927 116.966 35.922C117.089 35.9513 117.18 35.9865 117.238 36.0275C117.303 36.0626 117.355 36.1036 117.396 36.1505C117.467 36.2325 117.502 36.3029 117.502 36.3615C117.086 36.7599 116.793 37.2052 116.623 37.6974C116.453 38.1837 116.368 38.7316 116.368 39.3409C116.368 39.9445 116.395 40.3956 116.447 40.6945C116.5 40.9874 116.562 41.2101 116.632 41.3624C116.708 41.5148 116.781 41.6378 116.852 41.7316C116.928 41.8253 116.992 41.8956 117.045 41.9425C117.098 41.9835 117.124 42.0157 117.124 42.0392C117.124 42.0626 117.083 42.1124 117.001 42.1886C116.925 42.2589 116.84 42.3527 116.746 42.4698C116.658 42.587 116.573 42.8126 116.491 43.1466C116.415 43.4747 116.377 43.9611 116.377 44.6056C116.377 45.2501 116.45 45.7833 116.597 46.2052C116.743 46.6212 117.021 47.0197 117.432 47.4005C117.279 47.6993 116.884 47.8488 116.245 47.8488C115.917 47.8488 115.604 47.7316 115.305 47.4972C115.012 47.2687 114.798 47.0402 114.663 46.8116L114.461 46.4689C113.852 47.5001 113.031 48.0157 112 48.0157C110.811 48.0157 109.908 47.4943 109.293 46.4513C108.988 45.9298 108.836 45.3585 108.836 44.7374C108.836 44.1163 108.795 43.6212 108.713 43.2521C108.631 42.8829 108.543 42.6368 108.449 42.5138C108.355 42.3849 108.268 42.2794 108.186 42.1974C108.104 42.1154 108.062 42.0626 108.062 42.0392C108.062 42.0157 108.089 41.9835 108.142 41.9425C108.194 41.8956 108.259 41.8253 108.335 41.7316C108.411 41.632 108.487 41.5031 108.563 41.3448C108.745 40.9698 108.836 40.3751 108.836 39.5607C108.836 38.7462 108.763 38.1105 108.616 37.6534C108.47 37.1906 108.203 36.7599 107.816 36.3615C107.98 36.0392 108.297 35.8781 108.766 35.8781C109.076 35.8781 109.328 35.9572 109.521 36.1154C109.832 36.3673 110.061 36.6017 110.207 36.8185C110.676 36.1915 111.156 35.8781 111.648 35.8781C112.105 35.8781 112.36 36.0392 112.413 36.3615C112.038 36.7482 111.774 37.1906 111.622 37.6886C111.47 38.1866 111.394 38.7374 111.394 39.3409C111.394 39.9445 111.42 40.3956 111.473 40.6945C111.525 40.9874 111.587 41.2101 111.657 41.3624C111.733 41.5148 111.807 41.6378 111.877 41.7316C111.953 41.8253 112.018 41.8956 112.07 41.9425C112.123 41.9835 112.149 42.0157 112.149 42.0392C112.149 42.0626 112.108 42.1124 112.026 42.1886C111.95 42.2648 111.865 42.3644 111.771 42.4874C111.678 42.6046 111.59 42.8419 111.508 43.1993C111.432 43.5509 111.394 44.0226 111.394 44.6144C111.394 45.2003 111.511 45.672 111.745 46.0294C111.985 46.381 112.278 46.5568 112.624 46.5568C112.976 46.5568 113.283 46.3722 113.547 46.0031C113.811 45.6281 113.942 45.1564 113.942 44.588C113.942 44.0138 113.907 43.5509 113.837 43.1993C113.767 42.8419 113.688 42.6046 113.6 42.4874C113.512 42.3644 113.433 42.2648 113.362 42.1886C113.292 42.1124 113.257 42.0626 113.257 42.0392C113.257 42.0099 113.28 41.9718 113.327 41.9249C113.374 41.8781 113.43 41.8048 113.494 41.7052C113.559 41.5997 113.623 41.465 113.688 41.3009C113.846 40.9083 113.925 40.3195 113.925 39.5343C113.925 38.7433 113.863 38.1163 113.74 37.6534C113.617 37.1906 113.397 36.7599 113.081 36.3615C113.087 36.3497 113.093 36.3322 113.099 36.3087C113.104 36.2853 113.125 36.2472 113.16 36.1945C113.201 36.1359 113.248 36.0861 113.301 36.045C113.436 35.9337 113.614 35.8781 113.837 35.8781ZM125.887 40.8087L125.649 40.8878C125.169 40.8878 124.823 40.6329 124.612 40.1232C124.524 39.9181 124.48 39.7716 124.48 39.6837V39.6749C124.258 39.798 124.044 39.8595 123.839 39.8595C123.64 39.8595 123.476 39.8331 123.347 39.7804C123.224 39.7277 123.133 39.6661 123.074 39.5958C122.951 39.4376 122.875 39.2736 122.846 39.1036C122.875 39.1095 122.922 39.1124 122.986 39.1124C123.32 39.1124 123.596 38.9865 123.812 38.7345C124.035 38.4825 124.146 38.2511 124.146 38.0402C124.146 37.8234 124.123 37.6564 124.076 37.5392C124.035 37.422 123.977 37.3224 123.9 37.2404C123.742 37.0646 123.575 36.9767 123.399 36.9767C123.224 36.9767 123.074 37.0177 122.951 37.0997C122.828 37.1818 122.711 37.3048 122.6 37.4689C122.365 37.838 122.248 38.4152 122.248 39.2003C122.248 39.8214 122.318 40.3224 122.459 40.7032C122.605 41.0782 122.726 41.3536 122.819 41.5294C123.001 41.881 123.127 42.0568 123.197 42.0568L123.021 42.215C122.91 42.3204 122.805 42.4406 122.705 42.5753C122.605 42.7042 122.509 42.9327 122.415 43.2609C122.327 43.5831 122.283 44.0431 122.283 44.6407C122.283 45.2384 122.362 45.7482 122.521 46.17C122.679 46.5919 122.966 46.9933 123.382 47.3741C123.341 47.4913 123.238 47.5997 123.074 47.6993C122.916 47.799 122.737 47.8488 122.538 47.8488C121.952 47.8488 121.401 47.5353 120.886 46.9083C120.417 47.5353 119.937 47.8488 119.444 47.8488C119.21 47.8488 119.017 47.8136 118.864 47.7433C118.665 47.6495 118.542 47.5265 118.495 47.3741C118.905 46.9933 119.192 46.589 119.356 46.1613C119.521 45.7335 119.603 45.2413 119.603 44.6847C119.603 44.1222 119.579 43.7062 119.532 43.4366C119.491 43.1613 119.427 42.9415 119.339 42.7775C119.257 42.6134 119.184 42.4904 119.119 42.4083C119.061 42.3204 118.981 42.2384 118.882 42.1622C118.782 42.0861 118.729 42.045 118.724 42.0392C118.724 42.0216 118.753 41.9923 118.812 41.9513C118.876 41.9044 118.949 41.8341 119.031 41.7404C119.119 41.6466 119.207 41.5236 119.295 41.3712C119.5 41.0079 119.603 40.4425 119.603 39.6749C119.603 38.9073 119.515 38.295 119.339 37.838C119.163 37.381 118.847 36.9445 118.39 36.5284C118.542 36.2238 118.914 36.0714 119.506 36.0714C120.104 36.0714 120.669 36.5226 121.202 37.4249C121.981 36.3995 122.875 35.8868 123.883 35.8868C125.102 35.8868 125.849 36.338 126.124 37.2404C126.2 37.4865 126.238 37.7589 126.238 38.0577C126.238 38.714 126.024 39.3849 125.597 40.0704C125.579 40.1056 125.57 40.1437 125.57 40.1847C125.57 40.2257 125.576 40.2638 125.588 40.299C125.6 40.3341 125.617 40.3751 125.641 40.422C125.664 40.463 125.685 40.5011 125.702 40.5363C125.726 40.5656 125.758 40.6124 125.799 40.6769C125.84 40.7355 125.869 40.7794 125.887 40.8087ZM126.766 45.045L126.862 44.0079C126.862 43.6388 126.739 43.3165 126.493 43.0411C126.581 42.9591 126.681 42.9181 126.792 42.9181C126.903 42.9181 127.018 42.9357 127.135 42.9708C127.258 43.0001 127.39 43.0675 127.53 43.173C127.671 43.2784 127.782 43.3868 127.864 43.4982C127.946 43.6095 128.014 43.7238 128.066 43.8409C128.166 44.046 128.216 44.1837 128.216 44.254C128.562 43.9786 128.857 43.8409 129.104 43.8409C129.355 43.8409 129.54 43.8644 129.657 43.9113C129.774 43.9581 129.856 44.0197 129.903 44.0958C129.985 44.2189 130.026 44.3185 130.026 44.3947V44.421C129.774 44.4738 129.558 44.5851 129.376 44.755C129.194 44.9191 129.104 45.1593 129.104 45.4757C129.104 45.7863 129.215 46.0294 129.438 46.2052C129.666 46.3751 129.93 46.4601 130.229 46.4601C130.527 46.4601 130.768 46.4191 130.949 46.337C131.137 46.2491 131.277 46.1378 131.371 46.0031C131.553 45.7394 131.644 45.4816 131.644 45.2296C131.644 44.6027 131.474 44.1046 131.134 43.7355C130.8 43.3605 130.413 43.173 129.974 43.173C129.821 43.173 129.648 43.1964 129.455 43.2433C129.262 43.2902 129.153 43.3136 129.13 43.3136C129.112 43.3136 129.083 43.3048 129.042 43.2872C129.007 43.2638 128.969 43.1876 128.928 43.0587C128.799 42.6486 128.579 42.3175 128.269 42.0656C127.278 41.3624 126.783 40.4542 126.783 39.3409C126.783 38.2218 127.114 37.3663 127.776 36.7745C128.444 36.1769 129.347 35.8781 130.483 35.8781C131.058 35.8781 131.562 35.9718 131.995 36.1593C132.429 36.3409 132.769 36.5314 133.015 36.7306C133.577 37.1876 133.858 37.8116 133.858 38.6027L133.656 39.7365C133.656 40.0529 133.782 40.34 134.034 40.5978C133.952 40.674 133.829 40.712 133.665 40.712C133.501 40.712 133.343 40.671 133.19 40.589C133.038 40.5011 132.912 40.3986 132.812 40.2814C132.713 40.1642 132.625 40.0411 132.549 39.9122C132.408 39.6837 132.338 39.5343 132.338 39.464C131.969 39.7101 131.67 39.8331 131.441 39.8331C131.213 39.8331 131.043 39.8126 130.932 39.7716C130.826 39.7247 130.75 39.6661 130.703 39.5958C130.633 39.4786 130.598 39.3732 130.598 39.2794C130.932 39.2384 131.21 39.1359 131.433 38.9718C131.661 38.8077 131.775 38.5851 131.775 38.3038C131.775 38.0226 131.667 37.8146 131.45 37.6798C131.239 37.545 130.973 37.4777 130.65 37.4777C129.871 37.4777 129.481 37.92 129.481 38.8048C129.481 39.6896 129.812 40.2784 130.475 40.5714C130.539 40.6007 130.636 40.6154 130.765 40.6154C130.899 40.6154 131.093 40.5919 131.345 40.545C131.597 40.4982 131.74 40.4747 131.775 40.4747C131.816 40.4747 131.857 40.545 131.898 40.6857C132.051 41.1427 132.253 41.4445 132.505 41.5909C133.056 41.9952 133.475 42.4728 133.762 43.0236C134.055 43.5743 134.201 44.1046 134.201 44.6144C134.201 45.1183 134.116 45.5665 133.946 45.9591C133.782 46.3517 133.539 46.7032 133.217 47.0138C132.525 47.6818 131.535 48.0157 130.246 48.0157C129.461 48.0157 128.699 47.7638 127.961 47.2599C127.615 47.0255 127.328 46.715 127.1 46.3282C126.877 45.9357 126.766 45.5079 126.766 45.045Z" fill="#FA8443"/>
</svg>
