<svg width="20" height="14" viewBox="0 0 20 14" fill="none" xmlns="http://www.w3.org/2000/svg">
<path d="M2.1475 9.472C1.3825 8.644 1 8.22925 1 7C1 5.77 1.3825 5.35675 2.1475 4.528C3.6748 2.875 6.2362 1 10 1C13.7638 1 16.3252 2.875 17.8525 4.528C18.6175 5.3575 19 5.77075 19 7C19 8.23 18.6175 8.64325 17.8525 9.472C16.3252 11.125 13.7638 13 10 13C6.2362 13 3.6748 11.125 2.1475 9.472Z" stroke="#FA8443" stroke-width="1.5"/>
<path d="M12.7008 7C12.7008 7.59674 12.4163 8.16903 11.91 8.59099C11.4036 9.01295 10.7169 9.25 10.0008 9.25C9.2847 9.25 8.59794 9.01295 8.09159 8.59099C7.58524 8.16903 7.30078 7.59674 7.30078 7C7.30078 6.40326 7.58524 5.83097 8.09159 5.40901C8.59794 4.98705 9.2847 4.75 10.0008 4.75C10.7169 4.75 11.4036 4.98705 11.91 5.40901C12.4163 5.83097 12.7008 6.40326 12.7008 7Z" stroke="#FA8443" stroke-width="1.5"/>
</svg>
