<svg width="16" height="16" viewBox="0 0 16 16" fill="none" xmlns="http://www.w3.org/2000/svg">
<g clip-path="url(#clip0_1221_1630)">
<path d="M6.6013 2.82676C7.06019 2.71935 7.53001 2.66566 8.0013 2.66676C12.668 2.66676 15.3346 8.0001 15.3346 8.0001C14.93 8.75717 14.4473 9.46992 13.8946 10.1268M9.41463 9.41343C9.23154 9.60993 9.01073 9.76754 8.7654 9.87685C8.52007 9.98616 8.25524 10.0449 7.9867 10.0497C7.71815 10.0544 7.45141 10.005 7.20238 9.90443C6.95334 9.80384 6.72712 9.65412 6.5372 9.4642C6.34728 9.27428 6.19756 9.04806 6.09697 8.79902C5.99638 8.54999 5.94699 8.28325 5.95172 8.0147C5.95646 7.74616 6.01524 7.48133 6.12455 7.236C6.23386 6.99067 6.39147 6.76986 6.58797 6.58677M11.9613 11.9601C10.8217 12.8288 9.43404 13.31 8.0013 13.3334C3.33464 13.3334 0.667969 8.0001 0.667969 8.0001C1.49723 6.4547 2.64739 5.1045 4.0413 4.0401L11.9613 11.9601Z" stroke="#D0D0D0" stroke-width="2" stroke-linecap="round" stroke-linejoin="round"/>
<path d="M0.667969 0.666748L15.3346 15.3334" stroke="#D0D0D0" stroke-width="2" stroke-linecap="round" stroke-linejoin="round"/>
</g>
<defs>
<clipPath id="clip0_1221_1630">
<rect width="16" height="16" fill="white"/>
</clipPath>
</defs>
</svg>
