<svg width="16" height="16" viewBox="0 0 16 16" fill="none" xmlns="http://www.w3.org/2000/svg">
<path d="M15.36 0H11.5202C11.3505 0 11.1877 0.0674251 11.0677 0.187442C10.9477 0.307459 10.8803 0.470237 10.8803 0.639967C10.8803 0.809697 10.9477 0.972475 11.0677 1.09249C11.1877 1.21251 11.3505 1.27993 11.5202 1.27993H13.8153L10.4499 4.64536C9.17868 3.60627 7.55673 3.0955 5.91951 3.21869C4.28228 3.34188 2.75503 4.0896 1.65362 5.30721C0.552214 6.52483 -0.0390899 8.11918 0.00200727 9.76051C0.0431045 11.4019 0.713459 12.9646 1.87442 14.1256C3.03539 15.2865 4.59815 15.9569 6.23948 15.998C7.88082 16.0391 9.47517 15.4478 10.6928 14.3464C11.9104 13.245 12.6581 11.7177 12.7813 10.0805C12.9045 8.44327 12.3937 6.82132 11.3546 5.55012L14.7201 2.18549V4.47977C14.7201 4.6495 14.7875 4.81228 14.9075 4.9323C15.0275 5.05231 15.1903 5.11974 15.36 5.11974C15.5298 5.11974 15.6925 5.05231 15.8126 4.9323C15.9326 4.81228 16 4.6495 16 4.47977V0.639967C16 0.470237 15.9326 0.307459 15.8126 0.187442C15.6925 0.0674251 15.5298 0 15.36 0ZM10.0195 13.2225C9.30341 13.9383 8.39115 14.4257 7.39808 14.623C6.40501 14.8204 5.37572 14.7189 4.44035 14.3313C3.50497 13.9437 2.70551 13.2875 2.14305 12.4456C1.58059 11.6038 1.28038 10.614 1.28038 9.60151C1.28038 8.58902 1.58059 7.59926 2.14305 6.75738C2.70551 5.91549 3.50497 5.25928 4.44035 4.87171C5.37572 4.48414 6.40501 4.38262 7.39808 4.57998C8.39115 4.77734 9.30341 5.26472 10.0195 5.9805C10.9782 6.94174 11.5165 8.24392 11.5165 9.60151C11.5165 10.9591 10.9782 12.2613 10.0195 13.2225Z" fill="#FA8443"/>
</svg>
