<svg width="40" height="40" viewBox="0 0 40 40" fill="none" xmlns="http://www.w3.org/2000/svg">
<path d="M20.816 0.328423C20.5794 0.115586 20.288 0 19.988 0C19.688 0 19.3966 0.115586 19.16 0.328423L0 17.5672L1.65733 19.9858L4 17.878V36.923C4.00141 37.7386 4.28281 38.5203 4.78261 39.097C5.2824 39.6737 5.95986 39.9984 6.66667 40H33.3333C34.0401 39.9984 34.7176 39.6737 35.2174 39.097C35.7172 38.5203 35.9986 37.7386 36 36.923V17.8919L38.3427 19.9996L40 17.5811L20.816 0.328423ZM22.6667 36.923H17.3333V24.6151H22.6667V36.923ZM25.3333 36.923V24.6151C25.3326 23.7993 25.0514 23.0171 24.5515 22.4402C24.0516 21.8633 23.3737 21.5389 22.6667 21.5381H17.3333C16.6263 21.5389 15.9484 21.8633 15.4485 22.4402C14.9485 23.0171 14.6674 23.7993 14.6667 24.6151V36.923H6.66667V15.4795L20 3.49464L33.3333 15.4949V36.923H25.3333Z" fill="white"/>
</svg>
