<svg width="40" height="40" viewBox="0 0 40 40" fill="none" xmlns="http://www.w3.org/2000/svg">
<g clip-path="url(#clip0_745_1553)">
<path d="M8.83336 13H0V40H8.83336V13Z" fill="#E8EAEA"/>
<path d="M40.0004 13H31.167V40H40.0004V13Z" fill="#E8EAEA"/>
<path d="M0 13.5001H40C40 12.5001 39.1666 11.6667 38.1666 11.6667H1.83336C0.833359 11.6667 0 12.5001 0 13.5001Z" fill="#FFA679"/>
<path d="M31.1664 8.49976H8.83301V39.9998H31.1664V8.49976Z" fill="#F2F2F2"/>
<path d="M32.4169 6.66675H7.58363C7.08363 6.66675 6.66699 7.08339 6.66699 7.58339C6.66699 8.08339 7.08363 8.50011 7.58363 8.50011H32.417C32.917 8.50011 33.3336 8.08347 33.3336 7.58347C33.3336 7.08347 32.9169 6.66675 32.4169 6.66675Z" fill="#FFA679"/>
<path d="M6.33336 15.5H2.5V19.75H6.33336V15.5Z" fill="#42A8C3"/>
<path d="M6.33336 21.4167H2.5V25.6667H6.33336V21.4167Z" fill="#42A8C3"/>
<path d="M6.33336 27.3333H2.5V31.5833H6.33336V27.3333Z" fill="#42A8C3"/>
<path d="M6.33336 33.25H2.5V37.5H6.33336V33.25Z" fill="#42A8C3"/>
<path d="M37.5004 15.5H33.667V19.75H37.5004V15.5Z" fill="#42A8C3"/>
<path d="M37.5004 21.4167H33.667V25.6667H37.5004V21.4167Z" fill="#42A8C3"/>
<path d="M37.5004 27.3333H33.667V31.5833H37.5004V27.3333Z" fill="#42A8C3"/>
<path d="M37.5004 33.25H33.667V37.5H37.5004V33.25Z" fill="#42A8C3"/>
<path d="M15.4997 22.9167H11.333V27.1667H15.4997V22.9167Z" fill="#8ECBDB"/>
<path d="M24.4166 29.5833H15.5V39.9999H24.4166V29.5833Z" fill="#056D8A"/>
<path d="M40 38.25H0V40H40V38.25Z" fill="#ACB3BA"/>
<path d="M15.4997 11.0833H11.333V15.3333H15.4997V11.0833Z" fill="#8ECBDB"/>
<path d="M15.4997 17H11.333V21.25H15.4997V17Z" fill="#8ECBDB"/>
<path d="M22.0826 11.0833H17.916V15.3333H22.0826V11.0833Z" fill="#8ECBDB"/>
<path d="M22.0826 17H17.916V21.25H22.0826V17Z" fill="#8ECBDB"/>
<path d="M22.0826 22.9167H17.916V27.1667H22.0826V22.9167Z" fill="#8ECBDB"/>
<path d="M28.6666 11.0833H24.5V15.3333H28.6666V11.0833Z" fill="#8ECBDB"/>
<path d="M28.6666 17H24.5V21.25H28.6666V17Z" fill="#8ECBDB"/>
<path d="M28.6666 22.9167H24.5V27.1667H28.6666V22.9167Z" fill="#8ECBDB"/>
</g>
<defs>
<clipPath id="clip0_745_1553">
<rect width="40" height="40" fill="white"/>
</clipPath>
</defs>
</svg>
