<svg width="23" height="20" viewBox="0 0 23 20" fill="none" xmlns="http://www.w3.org/2000/svg">
<path d="M12.8407 13.07L10.3007 10.56L10.3307 10.53C12.0249 8.6471 13.2906 6.41925 14.0407 4H16.9707V2H9.9707V0H7.9707V2H0.970703V4H12.1407C11.4707 5.92 10.4107 7.75 8.9707 9.35C8.0407 8.32 7.2707 7.19 6.6607 6H4.6607C5.3907 7.63 6.3907 9.17 7.6407 10.56L2.5507 15.58L3.9707 17L8.9707 12L12.0807 15.11L12.8407 13.07ZM18.4707 8H16.4707L11.9707 20H13.9707L15.0907 17H19.8407L20.9707 20H22.9707L18.4707 8ZM15.8507 15L17.4707 10.67L19.0907 15H15.8507Z" fill="#42A7C3"/>
</svg>
