<svg width="10" height="11" viewBox="0 0 10 11" fill="none" xmlns="http://www.w3.org/2000/svg">
<path fill-rule="evenodd" clip-rule="evenodd" d="M0.532227 4.60608C0.532227 2.30615 2.45417 0.447205 4.77895 0.447205C7.11029 0.447205 9.03223 2.30615 9.03223 4.60608C9.03223 5.76505 8.61073 6.84102 7.91698 7.75299C7.15163 8.75896 6.2083 9.63544 5.1465 10.3234C4.90348 10.4824 4.68416 10.4944 4.41745 10.3234C3.34959 9.63544 2.40627 8.75896 1.64748 7.75299C0.953218 6.84102 0.532227 5.76505 0.532227 4.60608ZM3.37934 4.73558C3.37934 5.50606 4.00806 6.11204 4.77895 6.11204C5.55035 6.11204 6.18511 5.50606 6.18511 4.73558C6.18511 3.9711 5.55035 3.33562 4.77895 3.33562C4.00806 3.33562 3.37934 3.9711 3.37934 4.73558Z" fill="#42A7C3"/>
</svg>
