<svg width="40" height="33" viewBox="0 0 40 33" fill="none" xmlns="http://www.w3.org/2000/svg">
<path d="M37.1429 0H2.85714C2.09938 0 1.37266 0.347677 0.836838 0.966547C0.301019 1.58542 0 2.42479 0 3.3V29.7C0 30.5752 0.301019 31.4146 0.836838 32.0335C1.37266 32.6523 2.09938 33 2.85714 33H37.1429C37.9006 33 38.6273 32.6523 39.1632 32.0335C39.699 31.4146 40 30.5752 40 29.7V3.3C40 2.42479 39.699 1.58542 39.1632 0.966547C38.6273 0.347677 37.9006 0 37.1429 0ZM34 3.3L20 14.487L6 3.3H34ZM2.85714 29.7V4.8015L19.1857 17.853C19.4249 18.0446 19.709 18.1473 20 18.1473C20.291 18.1473 20.5752 18.0446 20.8143 17.853L37.1429 4.8015V29.7H2.85714Z" fill="white"/>
</svg>
