<svg width="20" height="25" viewBox="0 0 20 25" fill="none" xmlns="http://www.w3.org/2000/svg">
<path d="M7.87834 11.0592L4.33046 14.5554C3.91713 14.9627 3.71046 15.1663 3.61369 15.3946C3.55006 15.5452 3.51673 15.707 3.51561 15.8705C3.51448 16.034 3.54558 16.1962 3.60714 16.3477C3.70012 16.5769 3.90377 16.7836 4.31108 17.1969C4.66394 16.8492 5.14048 16.6559 5.63586 16.6595C6.13124 16.6632 6.6049 16.8634 6.95262 17.2163C7.30034 17.5691 7.49364 18.0457 7.49001 18.5411C7.48637 19.0365 7.2861 19.5101 6.93324 19.8578C7.34055 20.2712 7.5442 20.4778 7.772 20.5741C7.9226 20.6379 8.08429 20.6714 8.24784 20.6727C8.41138 20.6739 8.57357 20.643 8.72515 20.5816C8.95478 20.4882 9.16145 20.2845 9.57478 19.8772L13.1227 16.381M7.87834 11.0592L9.65228 9.31106C10.0656 8.90375 10.2723 8.70009 10.5015 8.60711C10.6531 8.54557 10.8153 8.51451 10.979 8.51571C11.1426 8.51691 11.3044 8.55035 11.4551 8.61411C11.6829 8.71044 11.8865 8.9171 12.2938 9.33043C11.941 9.67815 11.7407 10.1518 11.737 10.6472C11.7334 11.1426 11.9267 11.6191 12.2744 11.972C12.6222 12.3248 13.0958 12.5251 13.5912 12.5287C14.0866 12.5324 14.5631 12.3391 14.916 11.9913C15.3233 12.4047 15.5269 12.6113 15.6199 12.8405C15.6815 12.9921 15.7125 13.1544 15.7113 13.318C15.7101 13.4816 15.6767 13.6434 15.6129 13.7941C15.5166 14.0219 15.3099 14.2256 14.8966 14.6329L13.1227 16.381M7.87834 11.0592L13.1227 16.381" stroke="#42A7C3" stroke-width="1.5" stroke-linecap="round" stroke-linejoin="round"/>
<path d="M7.75 4.83333H12.25M16.429 1H3.571C2.152 1 1 2.02989 1 3.3V21.7C1 22.9701 2.152 24 3.571 24H16.429C17.8495 24 19 22.9701 19 21.7V3.3C19 2.02989 17.8495 1 16.429 1Z" stroke="#42A7C3" stroke-width="1.5" stroke-linecap="round" stroke-linejoin="round"/>
</svg>
