<svg width="18" height="23" viewBox="0 0 18 23" fill="none" xmlns="http://www.w3.org/2000/svg">
<path d="M3.42578 5.46246C3.42578 2.7741 5.87383 0.5 8.99822 0.5C12.1221 0.5 14.5699 2.77339 14.5707 5.4612C14.5587 8.10033 12.2539 10.3135 9.2075 10.4134H9.20746H9.20741H9.20737H9.20732H9.20728H9.20723H9.20719H9.20714H9.2071H9.20705H9.20701H9.20697H9.20692H9.20688H9.20684H9.20679H9.20675H9.20671H9.20666H9.20662H9.20658H9.20653H9.20649H9.20645H9.20641H9.20636H9.20632H9.20628H9.20624H9.2062H9.20615H9.20611H9.20607H9.20603H9.20599H9.20595H9.2059H9.20586H9.20582H9.20578H9.20574H9.2057H9.20566H9.20562H9.20558H9.20554H9.2055H9.20546H9.20542H9.20538H9.20534H9.2053H9.20526H9.20522H9.20518H9.20514H9.2051H9.20506H9.20502H9.20498H9.20494H9.2049H9.20486H9.20482H9.20478H9.20474H9.2047H9.20467H9.20463H9.20459H9.20455H9.20451H9.20447H9.20443H9.20439H9.20436H9.20432H9.20428H9.20424H9.2042H9.20416H9.20413H9.20409H9.20405H9.20401H9.20397H9.20394H9.2039H9.20386H9.20382H9.20378H9.20375H9.20371H9.20367H9.20363H9.2036H9.20356H9.20352H9.20348H9.20344H9.20341H9.20337H9.20333H9.20329H9.20326H9.20322H9.20318H9.20314H9.20311H9.20307H9.20303H9.20299H9.20296H9.20292H9.20288H9.20284H9.20281H9.20277H9.20273H9.20269H9.20266H9.20262H9.20258H9.20254H9.20251H9.20247H9.20243H9.20239H9.20236H9.20232H9.20228H9.20224H9.20221H9.20217H9.20213H9.20209H9.20206H9.20202H9.20198H9.20194H9.20191H9.20187H9.20183H9.20179H9.20175H9.20172H9.20168H9.20164H9.2016H9.20156H9.20153H9.20149H9.20145H9.20141H9.20137H9.20134H9.2013H9.20126H9.20122H9.20118H9.20114H9.20111H9.20107H9.20103H9.20099H9.20095H9.20091H9.20087H9.20083H9.20079H9.20076H9.20072H9.20068H9.20064H9.2006H9.20056H9.20052H9.20048H9.20044H9.2004H9.20036H9.20032H9.20028H9.20024H9.2002H9.20016H9.20012H9.20008H9.20004H9.2H9.19996H9.19992H9.19988H9.19984H9.1998H9.19976H9.19972H9.19968H9.19963H9.19959H9.19955H9.19951H9.19947H9.19943H9.19939H9.19934H9.1993H9.19926H9.19922H9.19917H9.19913H9.19909H9.19905H9.19901H9.19896H9.19892H9.19888H9.19883H9.19879H9.19875H9.1987H9.19866H9.19862H9.19857H9.19853H9.19848H9.19844H9.1984H9.19835H9.19831H9.19826H9.19822H9.19817H9.19813H9.19808H9.19804H9.19799H9.19795H9.1979H9.19785H9.19781H9.19776H9.19772H9.19767H9.19762H9.19758H9.19753H9.19748H9.19743H9.19739H9.19734H9.19729H9.19724H9.1972H9.19715H9.1971H9.19705H9.197H9.19695H9.19691H9.19686H9.19681H9.19676H9.19671H9.19666H9.19661H9.19656H9.19651H9.19646H9.19641H9.19636H9.19631H9.19625H9.1962H9.19615H9.1961H9.19605H9.196H9.19594H9.19589H9.19584H9.19579H9.19573H9.19568H9.19563H9.19557H9.19552H9.19547H9.19541H9.19536H9.1953H9.19525H9.19519H9.19514H9.19508H9.19503H9.19497H9.19492H9.19486H9.1948H9.19475H9.19469H9.19463H9.19458H9.19452H9.19446H9.1944H9.19435H9.19429H9.19423H9.19417H9.19411H9.19405H9.19399H9.19393H9.19387H9.19381H9.19375H9.19369H9.19363H9.19357H9.19351H9.19345H9.19339H9.19333H9.19326H9.1932H9.19314H9.19308H9.19301H9.19295H9.19289H9.19282H9.19276H9.1927H9.19263H9.19257H9.1925H9.19244H9.19237H9.1923H9.19224H9.19217H9.19211H9.19204H9.19197H9.1919H9.19184H9.19177H9.1917H9.19163H9.19156H9.19149H9.19143H9.19136H9.19129H9.19122H9.19115H9.19108H9.19101H9.19093H9.19086H9.19079H9.19072H9.19065H9.19057H9.1905H9.19043H9.19036H9.19028H9.19021H9.19013H9.19006H9.18998H9.18984H9.18969H9.18954H9.18939H9.18924H9.18909H9.18894H9.1888H9.18865H9.1885H9.18835H9.18821H9.18806H9.18792H9.18777H9.18762H9.18748H9.18733H9.18719H9.18705H9.1869H9.18676H9.18661H9.18647H9.18633H9.18619H9.18604H9.1859H9.18576H9.18562H9.18548H9.18533H9.18519H9.18505H9.18491H9.18477H9.18463H9.18449H9.18435H9.18421H9.18408H9.18394H9.1838H9.18366H9.18352H9.18338H9.18325H9.18311H9.18297H9.18284H9.1827H9.18256H9.18243H9.18229H9.18216H9.18202H9.18189H9.18175H9.18162H9.18148H9.18135H9.18121H9.18108H9.18095H9.18081H9.18068H9.18055H9.18041H9.18028H9.18015H9.18002H9.17989H9.17975H9.17962H9.17949H9.17936H9.17923H9.1791H9.17897H9.17884H9.17871H9.17858H9.17845H9.17832H9.17819H9.17806H9.17793H9.1778H9.17768H9.17755H9.17742H9.17729H9.17716H9.17704H9.17691H9.17678H9.17666H9.17653H9.1764H9.17628H9.17615H9.17602H9.1759H9.17577H9.17565H9.17552H9.1754H9.17527H9.17515H9.17502H9.1749H9.17477H9.17465H9.17453H9.1744H9.17428H9.17415H9.17403H9.17391H9.17378H9.17366H9.17354H9.17342H9.17329H9.17317H9.17305H9.17293H9.17281H9.17268H9.17256H9.17244H9.17232H9.1722H9.17208H9.17196H9.17184H9.17172H9.1716H9.17148H9.17136H9.17124H9.17112H9.171H9.17088H9.17076H9.17064H9.17052H9.1704H9.17028H9.17016H9.17004H9.16992H9.16981H9.16969H9.16957H9.16945H9.16933H9.16922H9.1691H9.16898H9.16886H9.16875H9.16863H9.16851H9.16839H9.16828H9.16816H9.16804H9.16793H9.16781H9.16769H9.16758H9.16746H9.16734H9.16723H9.16711H9.167H9.16688H9.16676H9.16665H9.16653H9.16642H9.1663H9.16619H9.16607H9.16596H9.16584H9.16573H9.16561H9.1655H9.16538H9.16527H9.16515H9.16504H9.16492H9.16481H9.16469H9.16458H9.16446H9.16435H9.16424H9.16412H9.16401H9.16389H9.16378H9.16367H9.16355H9.16344H9.16333H9.16321H9.1631H9.16299H9.16287H9.16276H9.16264H9.16253H9.16242H9.16231H9.16219H9.16208H9.16197H9.16185H9.16174H9.16163H9.16151H9.1614H9.16129H9.16118H9.16106H9.16095H9.16084H9.16072H9.16061H9.1605H9.16039H9.16027H9.16016H9.16005H9.15994H9.15982H9.15971H9.1596H9.15949H9.15937H9.15926H9.15915H9.15904H9.15892H9.15881H9.1587H9.15859H9.15847H9.15836H9.15825H9.15814H9.15803H9.15792C9.0509 10.4014 8.93549 10.4027 8.82789 10.4126C5.71254 10.3016 3.42578 8.08915 3.42578 5.46246Z" stroke="white"/>
<path d="M2.76418 20.9506L2.76283 20.9498C1.24518 20.0397 0.5 18.8679 0.5 17.6871C0.5 16.5059 1.24568 15.3229 2.77532 14.4016C4.47641 13.3891 6.73449 12.8684 9.01598 12.8684C11.2981 12.8684 13.5495 13.3894 15.2372 14.4014C16.7504 15.309 17.4883 16.4804 17.5 17.6663C17.4991 18.8585 16.7532 20.0297 15.2353 20.9509C13.5414 21.9738 11.2843 22.5001 9 22.5001C6.71544 22.5001 4.4581 21.9737 2.76418 20.9506Z" stroke="white"/>
</svg>
