<svg width="18" height="18" viewBox="0 0 18 18" fill="none" xmlns="http://www.w3.org/2000/svg">
<path d="M1.09556 4.96C1.80876 7.74262 3.25672 10.2824 5.28793 12.3136C7.31914 14.3448 9.85894 15.7928 12.6416 16.506C14.7826 17.051 16.6016 15.21 16.6016 13V12C16.6016 11.448 16.1526 11.005 15.6036 10.95C14.693 10.8603 13.7993 10.6452 12.9476 10.311L11.4276 11.831C8.95264 10.6447 6.95691 8.64892 5.77056 6.174L7.29056 4.654C6.956 3.80234 6.74063 2.90857 6.65056 1.998C6.59656 1.448 6.15356 1 5.60156 1H4.60156C2.39156 1 0.550562 2.819 1.09556 4.96Z" stroke="#FA8443" stroke-linecap="round" stroke-linejoin="round"/>
</svg>
