<svg width="40" height="40" viewBox="0 0 40 40" fill="none" xmlns="http://www.w3.org/2000/svg">
<path d="M3.95998 11.6046C3.22536 7.81168 6.64587 4.39899 11.8711 3.14677C12.7989 2.92458 13.8 2.98772 14.6703 3.3233C15.5406 3.65889 16.2145 4.24164 16.5546 4.95269L18.2301 8.45288C18.4995 9.01592 18.5478 9.62908 18.3688 10.2137C18.1898 10.7984 17.7917 11.3279 17.2255 11.7343L12.2413 15.3115C11.9955 15.4882 11.8123 15.7116 11.7096 15.9602C11.6069 16.2087 11.5881 16.4738 11.6552 16.7296L11.6995 16.8865L11.8229 17.2803C11.9328 17.6122 12.0986 18.0799 12.3319 18.6382C12.7947 19.7471 13.5332 21.2377 14.6322 22.7267C15.7312 24.2158 17.0115 25.462 18.0064 26.3295C18.5246 26.7812 19.0662 27.2161 19.6299 27.6331L19.7842 27.7447C20.0335 27.9175 20.3357 28.0368 20.6615 28.091C20.9872 28.1452 21.3253 28.1324 21.6429 28.054L28.0944 26.4653C28.8275 26.285 29.6126 26.2802 30.3491 26.4514C31.0857 26.6226 31.7401 26.9621 32.2284 27.4264L35.2806 30.3261C36.5532 31.5331 36.4028 33.3073 34.9393 34.374C30.9404 37.2903 25.4413 37.8892 21.6159 35.4813C16.927 32.5222 12.974 28.9131 9.95455 24.8344C6.91013 20.7584 4.87634 16.2709 3.95998 11.6046ZM15.6946 16.9273L19.8324 13.9581C20.9647 13.1453 21.761 12.0863 22.1189 10.917C22.4769 9.74768 22.3803 8.52135 21.8415 7.39528L20.164 3.89508C19.4797 2.46502 18.1241 1.29301 16.3736 0.617967C14.6231 -0.0570796 12.6094 -0.184342 10.7432 0.262121C4.25499 1.8176 -0.954834 6.36936 0.148059 12.0557C1.13719 17.0978 3.33318 21.9486 6.62081 26.3537C9.87756 30.7521 14.141 34.644 19.198 37.8349C24.9342 41.4407 32.5966 40.2111 37.5693 36.5827C38.9921 35.545 39.8555 34.1217 39.9835 32.6031C40.1114 31.0845 39.4941 29.5849 38.2576 28.41L35.2054 25.5103C34.2287 24.5816 32.9196 23.9024 31.4461 23.5599C29.9726 23.2174 28.4019 23.2273 26.9356 23.5882L21.5812 24.9068C21.3415 24.7139 21.1069 24.5173 20.8774 24.3169C19.777 23.3643 18.8034 22.3265 17.9717 21.2195C17.1621 20.1023 16.4999 18.9235 15.9954 17.7012C15.8884 17.4454 15.7881 17.1879 15.6946 16.9288" fill="white"/>
</svg>
