<svg width="23" height="22" viewBox="0 0 23 22" fill="none" xmlns="http://www.w3.org/2000/svg">
<path d="M8.9707 0C8.4207 0 7.9707 0.45 7.9707 1V3H6.9007C5.7707 3 4.7807 3.77 4.5107 4.87L3.4937 9H2.8307C2.71777 9 2.60594 9.02225 2.5016 9.06546C2.39726 9.10868 2.30245 9.17203 2.22259 9.25189C2.14273 9.33175 2.07939 9.42655 2.03617 9.53089C1.99295 9.63523 1.9707 9.74706 1.9707 9.86V11.14C1.9707 11.26 1.9957 11.375 2.0397 11.478L1.8807 11.56C1.61012 11.6917 1.38161 11.8962 1.22086 12.1506C1.06011 12.4049 0.973476 12.6991 0.970703 13V17.01C0.970703 17.746 1.3737 18.393 1.9707 18.74V21C1.9707 21.55 2.4207 22 2.9707 22H4.9707C5.5307 22 5.9707 21.56 5.9707 21V19.01H17.9707V21C17.9707 21.55 18.4207 22 18.9707 22H20.9707C21.5307 22 21.9707 21.56 21.9707 21V18.734C22.5617 18.386 22.9607 17.742 22.9607 17.01H22.9707V13C22.968 12.6991 22.8815 12.4049 22.7207 12.1505C22.5599 11.8961 22.3314 11.6916 22.0607 11.56L21.9007 11.478C21.9468 11.3713 21.9706 11.2563 21.9707 11.14V9.86C21.9707 9.63191 21.8801 9.41317 21.7188 9.25189C21.5575 9.09061 21.3388 9 21.1107 9H20.4477L19.4307 4.87C19.2983 4.33621 18.991 3.8621 18.5579 3.5232C18.1248 3.18431 17.5907 3.00012 17.0407 3H15.9707V1C15.9707 0.45 15.5207 0 14.9707 0H8.9707ZM10.9707 1.012H12.9707V2H14.9587V3H8.9827V2H10.9707V1.012ZM5.4817 5.108C5.48989 5.07502 5.49923 5.04233 5.5097 5.01H18.4317C18.4417 5.043 18.4517 5.076 18.4597 5.11L19.6647 10H4.2767L5.4817 5.108ZM18.9707 11L18.4007 12.14C18.1407 12.67 17.6007 13 17.0107 13H6.9307C6.3407 13 5.8007 12.67 5.5407 12.14L4.9707 11H18.9707ZM21.9587 13V16H20.9707C20.4207 16 19.9707 15.55 19.9707 15V14C19.9707 13.45 20.4207 13 20.9707 13H21.9587ZM1.9827 16V13H2.9707C3.5207 13 3.9707 13.45 3.9707 14V15C3.9707 15.55 3.5207 16 2.9707 16H1.9827ZM14.9707 14C15.5307 14 15.9707 14.45 15.9607 15C15.9607 15.55 15.5107 16 14.9607 16H8.9707C8.4207 16 7.9707 15.55 7.9707 15C7.9707 14.45 8.4207 14 8.9707 14H14.9707ZM5.9707 16C5.70549 16 5.45113 15.8946 5.2636 15.7071C5.07606 15.5196 4.9707 15.2652 4.9707 15C4.9707 14.7348 5.07606 14.4804 5.2636 14.2929C5.45113 14.1054 5.70549 14 5.9707 14C6.23592 14 6.49027 14.1054 6.67781 14.2929C6.86535 14.4804 6.9707 14.7348 6.9707 15C6.9707 15.2652 6.86535 15.5196 6.67781 15.7071C6.49027 15.8946 6.23592 16 5.9707 16ZM18.9707 15C18.9707 15.2652 18.8653 15.5196 18.6778 15.7071C18.4903 15.8946 18.2359 16 17.9707 16C17.7055 16 17.4511 15.8946 17.2636 15.7071C17.0761 15.5196 16.9707 15.2652 16.9707 15C16.9707 14.7348 17.0761 14.4804 17.2636 14.2929C17.4511 14.1054 17.7055 14 17.9707 14C18.2359 14 18.4903 14.1054 18.6778 14.2929C18.8653 14.4804 18.9707 14.7348 18.9707 15Z" fill="#42A7C3"/>
</svg>
