<svg width="16" height="17" viewBox="0 0 16 17" fill="none" xmlns="http://www.w3.org/2000/svg">
<path d="M7.66797 8.75C8.66253 8.75 9.61636 8.35491 10.3196 7.65165C11.0229 6.94839 11.418 5.99456 11.418 5C11.418 4.00544 11.0229 3.05161 10.3196 2.34835C9.61636 1.64509 8.66253 1.25 7.66797 1.25C6.67341 1.25 5.71958 1.64509 5.01632 2.34835C4.31306 3.05161 3.91797 4.00544 3.91797 5C3.91797 5.99456 4.31306 6.94839 5.01632 7.65165C5.71958 8.35491 6.67341 8.75 7.66797 8.75ZM7.66797 10C6.34189 10 5.07012 9.47322 4.13243 8.53553C3.19475 7.59785 2.66797 6.32608 2.66797 5C2.66797 3.67392 3.19475 2.40215 4.13243 1.46447C5.07012 0.526784 6.34189 0 7.66797 0C8.99405 0 10.2658 0.526784 11.2035 1.46447C12.1412 2.40215 12.668 3.67392 12.668 5C12.668 6.32608 12.1412 7.59785 11.2035 8.53553C10.2658 9.47322 8.99405 10 7.66797 10Z" fill="#FA8443"/>
<path d="M7.9987 9C8.17551 9 8.34508 9.0602 8.4701 9.16737C8.59513 9.27453 8.66536 9.41988 8.66536 9.57143V14.1429C8.66536 14.2944 8.59513 14.4398 8.4701 14.5469C8.34508 14.6541 8.17551 14.7143 7.9987 14.7143C7.82189 14.7143 7.65232 14.6541 7.52729 14.5469C7.40227 14.4398 7.33203 14.2944 7.33203 14.1429V9.57143C7.33203 9.41988 7.40227 9.27453 7.52729 9.16737C7.65232 9.0602 7.82189 9 7.9987 9Z" fill="#FA8443"/>
<path d="M5.33333 11.448V12.608C2.95333 12.9349 1.33333 13.6411 1.33333 14.1429C1.33333 14.816 4.248 15.8571 8 15.8571C11.752 15.8571 14.6667 14.816 14.6667 14.1429C14.6667 13.64 13.0467 12.9349 10.6667 12.608V11.448C13.7733 11.84 16 12.8994 16 14.1429C16 15.72 12.4187 17 8 17C3.58133 17 0 15.72 0 14.1429C0 12.8983 2.22667 11.84 5.33333 11.448Z" fill="#FA8443"/>
</svg>
