<svg width="20" height="20" viewBox="0 0 20 20" fill="none" xmlns="http://www.w3.org/2000/svg">
<path d="M13.8768 3.14523C13.3458 3.14523 13.0794 3.14523 12.8373 3.05523L12.7374 3.01383C12.5025 2.90583 12.3144 2.71863 11.9382 2.34244C11.0724 1.47664 10.6395 1.04374 10.1076 1.00324C10.0357 0.998919 9.96353 0.998919 9.8916 1.00324C9.3597 1.04374 8.9268 1.47664 8.06101 2.34244C7.68481 2.71863 7.49671 2.90673 7.26181 3.01383L7.16281 3.05523C6.91981 3.14523 6.65431 3.14523 6.12242 3.14523H6.02342C4.66712 3.14523 3.98853 3.14523 3.56643 3.56643C3.14433 3.98763 3.14523 4.66712 3.14523 6.02342V6.12242C3.14523 6.65341 3.14523 6.91981 3.05523 7.16191C3.04203 7.19611 3.02823 7.22941 3.01383 7.26181C2.90583 7.49671 2.71863 7.68481 2.34244 8.06101C1.47664 8.9268 1.04374 9.3597 1.00324 9.8916C0.998919 9.96353 0.998919 10.0357 1.00324 10.1076C1.04374 10.6395 1.47664 11.0724 2.34244 11.9382C2.71863 12.3144 2.90673 12.5025 3.01383 12.7374C3.02883 12.7698 3.04263 12.8028 3.05523 12.8364C3.14523 13.0794 3.14523 13.3449 3.14523 13.8768V13.9758C3.14523 15.3321 3.14523 16.0107 3.56643 16.4328C3.98763 16.8549 4.66712 16.854 6.02342 16.854H6.12242C6.65341 16.854 6.91981 16.854 7.16191 16.944C7.19611 16.9566 7.22941 16.9704 7.26181 16.9854C7.49671 17.0934 7.68481 17.2806 8.06101 17.6568C8.9268 18.5226 9.3597 18.9555 9.8916 18.996C9.9636 19.0014 10.0356 19.0014 10.1076 18.996C10.6395 18.9555 11.0724 18.5226 11.9382 17.6568C12.3144 17.2806 12.5025 17.0934 12.7374 16.9854C12.7698 16.9704 12.8028 16.9566 12.8364 16.944C13.0794 16.854 13.3449 16.854 13.8768 16.854H13.9758C15.3321 16.854 16.0107 16.854 16.4328 16.4328C16.8549 16.0116 16.854 15.3321 16.854 13.9758V13.8768C16.854 13.3458 16.854 13.0794 16.944 12.8373C16.9566 12.8031 16.9704 12.7698 16.9854 12.7374C17.0934 12.5025 17.2806 12.3144 17.6568 11.9382C18.5226 11.0724 18.9555 10.6395 18.996 10.1076C19.0014 10.0356 19.0014 9.9636 18.996 9.8916C18.9555 9.3597 18.5226 8.9268 17.6568 8.06101C17.2806 7.68481 17.0934 7.49671 16.9854 7.26181L16.944 7.16281C16.854 6.91981 16.854 6.65431 16.854 6.12242V6.02342C16.854 4.66712 16.854 3.98853 16.4328 3.56643C16.0116 3.14433 15.3321 3.14523 13.9758 3.14523H13.8768Z" stroke="#9398B2" stroke-linecap="round" stroke-linejoin="round"/>
<path d="M13.1515 9.99959C13.1515 10.4133 13.0701 10.8229 12.9118 11.205C12.7535 11.5872 12.5214 11.9345 12.2289 12.227C11.9364 12.5195 11.5892 12.7515 11.207 12.9098C10.8248 13.0681 10.4152 13.1496 10.0015 13.1496C9.58788 13.1496 9.17827 13.0681 8.7961 12.9098C8.41393 12.7515 8.06667 12.5195 7.77417 12.227C7.48167 11.9345 7.24964 11.5872 7.09134 11.205C6.93304 10.8229 6.85156 10.4133 6.85156 9.99959C6.85156 9.16417 7.18344 8.36296 7.77417 7.77222C8.36491 7.18148 9.16612 6.84961 10.0015 6.84961C10.837 6.84961 11.6382 7.18148 12.2289 7.77222C12.8197 8.36296 13.1515 9.16417 13.1515 9.99959Z" stroke="#9398B2" stroke-linecap="round" stroke-linejoin="round"/>
</svg>
