<svg width="19" height="23" viewBox="0 0 19 23" fill="none" xmlns="http://www.w3.org/2000/svg">
<path d="M16.2081 23C15.4332 23 14.7734 22.7054 14.2288 22.1163C13.6841 21.5288 13.4118 20.8146 13.4118 19.9737C13.4118 19.8123 13.4248 19.6456 13.4509 19.4737C13.4762 19.301 13.5146 19.1388 13.566 18.9871L4.91318 13.4647C4.63973 13.7988 4.32157 14.0591 3.95871 14.2455C3.59659 14.4327 3.20839 14.5263 2.79412 14.5263C2.01773 14.5263 1.35831 14.2326 0.815882 13.6451C0.271961 13.0567 0 12.3425 0 11.5024C0 10.6631 0.271961 9.94851 0.815882 9.35858C1.35757 8.76865 2.01698 8.47368 2.79412 8.47368C3.20839 8.47368 3.59659 8.5673 3.95871 8.75453C4.32157 8.94095 4.63973 9.20121 4.91318 9.53532L13.566 4.01289C13.5146 3.86118 13.4762 3.69897 13.4509 3.52626C13.4248 3.35437 13.4118 3.18772 13.4118 3.02632C13.4118 2.1854 13.6834 1.47119 14.2265 0.883684C14.769 0.294561 15.428 0 16.2036 0C16.9785 0 17.6383 0.294158 18.183 0.882474C18.7277 1.46998 19 2.18379 19 3.02389C19 3.86319 18.728 4.57781 18.1841 5.16774C17.6417 5.75767 16.9823 6.05263 16.2059 6.05263C15.7916 6.05263 15.4034 5.95902 15.0413 5.77179C14.6784 5.58537 14.3603 5.32511 14.0868 4.991L5.434 10.5134C5.48541 10.6651 5.52378 10.8265 5.54912 10.9976C5.5752 11.1695 5.58824 11.3354 5.58824 11.4952C5.58824 11.6549 5.5752 11.8224 5.54912 11.9975C5.52378 12.1718 5.48541 12.3349 5.434 12.4866L14.0868 18.009C14.3603 17.6749 14.6784 17.4146 15.0413 17.2282C15.4034 17.041 15.7916 16.9474 16.2059 16.9474C16.9823 16.9474 17.6417 17.2415 18.1841 17.8298C18.728 18.4174 19 19.1312 19 19.9713C19 20.8106 18.7288 21.5252 18.1864 22.1151C17.6432 22.705 16.9838 23 16.2081 23ZM16.2059 4.84211C16.6656 4.84211 17.0601 4.66416 17.3895 4.30826C17.7181 3.95156 17.8824 3.52425 17.8824 3.02632C17.8824 2.52839 17.7181 2.10107 17.3895 1.74437C17.0601 1.38847 16.6656 1.21053 16.2059 1.21053C15.7462 1.21053 15.3516 1.38847 15.0223 1.74437C14.6937 2.10107 14.5294 2.52839 14.5294 3.02632C14.5294 3.52425 14.6937 3.95156 15.0223 4.30826C15.3516 4.66416 15.7462 4.84211 16.2059 4.84211ZM2.79412 13.3158C3.25384 13.3158 3.64837 13.1378 3.97771 12.7819C4.30629 12.4252 4.47059 11.9979 4.47059 11.5C4.47059 11.0021 4.30629 10.5748 3.97771 10.2181C3.64837 9.86216 3.25384 9.68421 2.79412 9.68421C2.33439 9.68421 1.93986 9.86216 1.61053 10.2181C1.28194 10.5748 1.11765 11.0021 1.11765 11.5C1.11765 11.9979 1.28194 12.4252 1.61053 12.7819C1.93986 13.1378 2.33439 13.3158 2.79412 13.3158ZM16.2059 21.7895C16.6656 21.7895 17.0601 21.6115 17.3895 21.2556C17.7181 20.8989 17.8824 20.4716 17.8824 19.9737C17.8824 19.4758 17.7181 19.0484 17.3895 18.6917C17.0601 18.3358 16.6656 18.1579 16.2059 18.1579C15.7462 18.1579 15.3516 18.3358 15.0223 18.6917C14.6937 19.0484 14.5294 19.4758 14.5294 19.9737C14.5294 20.4716 14.6937 20.8989 15.0223 21.2556C15.3516 21.6115 15.7462 21.7895 16.2059 21.7895Z" fill="#42A7C3"/>
</svg>
