<svg width="63" height="55" viewBox="0 0 63 55" fill="none" xmlns="http://www.w3.org/2000/svg">
<g clip-path="url(#clip0_1221_1640)">
<path d="M34.2935 54.7066C34.2935 54.7066 31.4402 37.7337 27.9185 34.2772C24.3967 30.8207 7.29345 28.2935 7.29345 28.2935C7.29345 28.2935 24.2663 25.4402 27.7228 21.9185C31.1793 18.3968 33.7065 1.29348 33.7065 1.29348C33.7065 1.29348 36.5598 18.2663 40.0815 21.7228C43.6033 25.1794 60.7066 27.7066 60.7066 27.7066C60.7066 27.7066 43.7337 30.5598 40.2772 34.0816C36.8207 37.6033 34.2935 54.7066 34.2935 54.7066Z" fill="black"/>
</g>
<path d="M7.07609 13.924C7.07609 13.924 6.33635 9.52359 5.4233 8.62745C4.51026 7.73131 0.0760583 7.07612 0.0760583 7.07612C0.0760583 7.07612 4.47644 6.33638 5.37258 5.42333C6.26872 4.51028 6.92391 0.0760873 6.92391 0.0760873C6.92391 0.0760873 7.66365 4.47647 8.5767 5.37261C9.48974 6.26875 13.9239 6.92394 13.9239 6.92394C13.9239 6.92394 9.52356 7.66368 8.62742 8.57673C7.73128 9.48977 7.07609 13.924 7.07609 13.924Z" fill="#F9C54E"/>
<path d="M58.5489 20.4511C58.5489 20.4511 58.0734 17.6223 57.4864 17.0462C56.8995 16.4701 54.0489 16.0489 54.0489 16.0489C54.0489 16.0489 56.8777 15.5734 57.4538 14.9864C58.0299 14.3995 58.4511 11.5489 58.4511 11.5489C58.4511 11.5489 58.9266 14.3777 59.5136 14.9538C60.1005 15.5299 62.9511 15.9511 62.9511 15.9511C62.9511 15.9511 60.1223 16.4266 59.5462 17.0136C58.9701 17.6006 58.5489 20.4511 58.5489 20.4511Z" fill="#F9C54E"/>
<defs>
<clipPath id="clip0_1221_1640">
<rect width="38.1838" height="38.1838" fill="white" transform="translate(34 1) rotate(45)"/>
</clipPath>
</defs>
</svg>
