<svg width="13" height="13" viewBox="0 0 13 13" fill="none" xmlns="http://www.w3.org/2000/svg">
<path d="M6.05163 1.53827C6.23504 1.16665 6.76496 1.16664 6.94837 1.53827L8.02316 3.71603C8.24165 4.15874 8.664 4.4656 9.15256 4.53659L11.5559 4.88581C11.966 4.9454 12.1297 5.44939 11.833 5.73866L10.0939 7.4338C9.7404 7.77841 9.57907 8.27491 9.66253 8.7615L10.0731 11.1551C10.1431 11.5635 9.7144 11.875 9.34759 11.6822L7.19801 10.5521C6.76102 10.3223 6.23897 10.3223 5.80199 10.5521L3.65241 11.6822C3.2856 11.875 2.85688 11.5635 2.92694 11.1551L3.33747 8.7615C3.42093 8.27491 3.2596 7.77841 2.90608 7.4338L1.16703 5.73866C0.870273 5.44939 1.03403 4.9454 1.44414 4.88581L3.84744 4.53659C4.336 4.4656 4.75835 4.15874 4.97684 3.71603L6.05163 1.53827Z" stroke="#EDB700"/>
</svg>
