<svg width="13" height="13" viewBox="0 0 13 13" fill="none" xmlns="http://www.w3.org/2000/svg">
<path d="M5.60326 1.31698C5.97008 0.573739 7.02992 0.57374 7.39674 1.31699L8.47153 3.49475C8.61719 3.78989 8.89875 3.99446 9.22446 4.04179L11.6278 4.39101C12.448 4.51019 12.7755 5.51816 12.182 6.0967L10.4429 7.79185C10.2072 8.02158 10.0997 8.35258 10.1553 8.67698L10.5659 11.0706C10.706 11.8875 9.84855 12.5104 9.11492 12.1247L6.96534 10.9946C6.67402 10.8415 6.32598 10.8415 6.03466 10.9946L3.88508 12.1247C3.15146 12.5104 2.29402 11.8875 2.43413 11.0706L2.84467 8.67698C2.9003 8.35258 2.79276 8.02158 2.55707 7.79185L0.818027 6.0967C0.22451 5.51816 0.552019 4.51019 1.37224 4.39101L3.77554 4.04179C4.10125 3.99446 4.38281 3.78989 4.52848 3.49474L5.60326 1.31698Z" fill="#FDC400"/>
</svg>
