<svg width="22" height="22" viewBox="0 0 22 22" fill="none" xmlns="http://www.w3.org/2000/svg">
<path d="M14.4082 8.41176L13.7905 8.30565C13.7756 8.3983 13.7804 8.4932 13.8045 8.58375C13.8287 8.6743 13.8717 8.75832 13.9305 8.82999C13.9892 8.90166 14.0624 8.95926 14.1449 8.99877C14.2274 9.03829 14.3172 9.05878 14.4082 9.05882V8.41176ZM0.626442 8.41176V7.76471C0.460299 7.76471 0.300961 7.83288 0.183481 7.95422C0.0660001 8.07557 0 8.24015 0 8.41176H0.626442ZM3.13221 22H17.365V20.7059H3.13221V22ZM18.8684 7.76471H14.4082V9.05882H18.8684V7.76471ZM15.0258 8.51788L16.0357 2.26082L14.8003 2.04729L13.7905 8.30565L15.0258 8.51788ZM14.1826 5.06836e-08H13.9158V1.29412H14.1826V5.06836e-08ZM10.2661 2.01753L7.11387 6.90024L8.15627 7.61847L11.3073 2.73447L10.2661 2.01753ZM5.55027 7.76471H0.626442V9.05882H5.55027V7.76471ZM0 8.41176V18.7647H1.25288V8.41176H0ZM20.437 19.3988L21.9405 11.6341L20.7127 11.3805L19.2092 19.1452L20.437 19.3988ZM7.11387 6.90024C6.94227 7.16613 6.70977 7.38416 6.43701 7.53496C6.16424 7.68577 5.85965 7.76468 5.55027 7.76471V9.05882C6.06587 9.05883 6.57349 8.92737 7.0281 8.67611C7.4827 8.42485 7.87022 8.06155 8.15627 7.61847L7.11387 6.90024ZM16.0357 2.26082C16.0806 1.98276 16.0664 1.69793 15.994 1.42612C15.9215 1.15432 15.7927 0.902067 15.6163 0.686908C15.44 0.47175 15.2204 0.298847 14.9728 0.180223C14.7252 0.0615982 14.4556 9.85111e-05 14.1826 5.06836e-08V1.29412C14.2737 1.29397 14.3637 1.31433 14.4463 1.35376C14.529 1.39319 14.6023 1.45076 14.6612 1.52245C14.7201 1.59415 14.7632 1.67824 14.7874 1.76888C14.8117 1.85952 14.8165 1.95453 14.8016 2.04729L16.0357 2.26082ZM18.8684 9.05882C19.1465 9.05881 19.4211 9.12251 19.6724 9.24535C19.9237 9.36819 20.1455 9.5471 20.3218 9.76918C20.4981 9.99126 20.6245 10.251 20.6919 10.5296C20.7592 10.8082 20.7672 11.0988 20.7127 11.3805L21.9405 11.6341C22.0313 11.1649 22.019 10.6808 21.9068 10.2165C21.7946 9.75231 21.5841 9.31956 21.2905 8.94947C20.997 8.57937 20.6275 8.28115 20.2089 8.07628C19.7903 7.87141 19.3329 7.765 18.8697 7.76471L18.8684 9.05882ZM17.365 22C18.0892 22.0001 18.7912 21.741 19.3513 21.2668C19.9114 20.7925 20.2951 20.1324 20.437 19.3988L19.2092 19.1452C19.124 19.5855 18.8936 19.9817 18.5574 20.2663C18.2211 20.5509 17.7997 20.7062 17.365 20.7059V22ZM13.9145 5.06836e-08C13.1924 -0.000111523 12.4814 0.183989 11.8447 0.53595C11.208 0.887911 10.6654 1.39684 10.2649 2.01753L11.3073 2.73447C11.5933 2.29139 11.9809 1.92809 12.4355 1.67683C12.8901 1.42557 13.3977 1.29411 13.9133 1.29412L13.9145 5.06836e-08ZM3.13221 20.7059C2.63378 20.7059 2.15577 20.5014 1.80333 20.1373C1.45088 19.7733 1.25288 19.2795 1.25288 18.7647H0C0 19.1896 0.081017 19.6103 0.238425 20.0028C0.395834 20.3953 0.62655 20.752 0.917403 21.0524C1.20826 21.3528 1.55355 21.5911 1.93356 21.7537C2.31358 21.9163 2.72088 22 3.13221 22V20.7059Z" fill="#42A7C3"/>
<path d="M5.63867 8.41187V21.353Z" fill="#42A7C3"/>
<path d="M5.63867 8.41187V21.353" stroke="#42A7C3"/>
</svg>
