<svg width="21" height="24" viewBox="0 0 21 24" fill="none" xmlns="http://www.w3.org/2000/svg">
<path d="M11.2094 22.7808C11.0023 22.9234 10.7543 23 10.5 23C10.2457 23 9.99767 22.9234 9.79065 22.7808C3.67373 18.5738 -2.81812 9.92011 3.74467 3.66699C5.54574 1.95596 7.9725 0.997879 10.5 1C13.0334 1 15.4642 1.95948 17.2553 3.66577C23.8181 9.91889 17.3263 18.5713 11.2094 22.7808Z" stroke="#42A7C3" stroke-width="1.5" stroke-linecap="round" stroke-linejoin="round"/>
<path d="M10.4983 12.0004C11.1702 12.0004 11.8145 11.7428 12.2896 11.2844C12.7647 10.826 13.0317 10.2042 13.0317 9.55586C13.0317 8.90753 12.7647 8.28576 12.2896 7.82732C11.8145 7.36888 11.1702 7.11133 10.4983 7.11133C9.82635 7.11133 9.18197 7.36888 8.70686 7.82732C8.23176 8.28576 7.96484 8.90753 7.96484 9.55586C7.96484 10.2042 8.23176 10.826 8.70686 11.2844C9.18197 11.7428 9.82635 12.0004 10.4983 12.0004Z" stroke="#42A7C3" stroke-width="1.5" stroke-linecap="round" stroke-linejoin="round"/>
</svg>
