<svg width="25" height="25" viewBox="0 0 25 25" fill="none" xmlns="http://www.w3.org/2000/svg">
<path d="M4.31445 20.5781H21.6478" stroke="#B05D33"/>
<path d="M2.74607 21.646C2.61589 21.7727 2.61589 21.9781 2.74607 22.1047C2.87625 22.2314 3.0873 22.2314 3.21747 22.1047L2.74607 21.646ZM7.88417 17.5642C8.0143 17.4375 8.0143 17.2322 7.88417 17.1055C7.75397 16.9789 7.54291 16.9789 7.41274 17.1055L7.88417 17.5642ZM3.21747 22.1047L7.88417 17.5642L7.41274 17.1055L2.74607 21.646L3.21747 22.1047Z" fill="#D67B4D"/>
<path d="M2.74607 21.646C2.61589 21.7727 2.61589 21.9781 2.74607 22.1047C2.87625 22.2314 3.0873 22.2314 3.21747 22.1047L2.74607 21.646ZM7.88417 17.5642C8.0143 17.4375 8.0143 17.2322 7.88417 17.1055C7.75397 16.9789 7.54291 16.9789 7.41274 17.1055L7.88417 17.5642ZM3.21747 22.1047L7.88417 17.5642L7.41274 17.1055L2.74607 21.646L3.21747 22.1047Z" fill="#D67B4D"/>
<path d="M23.2172 21.646C23.3473 21.7727 23.3473 21.9781 23.2172 22.1047C23.087 22.2314 22.8759 22.2314 22.7457 22.1047L23.2172 21.646ZM18.079 17.5642C17.9489 17.4375 17.9489 17.2322 18.079 17.1055C18.2092 16.9789 18.4203 16.9789 18.5505 17.1055L18.079 17.5642ZM22.7457 22.1047L18.079 17.5642L18.5505 17.1055L23.2172 21.646L22.7457 22.1047Z" fill="#D67B4D"/>
<path d="M23.2172 21.646C23.3473 21.7727 23.3473 21.9781 23.2172 22.1047C23.087 22.2314 22.8759 22.2314 22.7457 22.1047L23.2172 21.646ZM18.079 17.5642C17.9489 17.4375 17.9489 17.2322 18.079 17.1055C18.2092 16.9789 18.4203 16.9789 18.5505 17.1055L18.079 17.5642ZM22.7457 22.1047L18.079 17.5642L18.5505 17.1055L23.2172 21.646L22.7457 22.1047Z" fill="#D67B4D"/>
<path fill-rule="evenodd" clip-rule="evenodd" d="M8.31445 3.22842C8.53665 3.11244 9.04779 2.74131 9.31445 2.18461C9.64779 1.48874 9.98112 1.14081 10.9811 1.14081H12.3145H14.3145C15.3145 1.14081 15.6478 1.48874 15.9811 2.18461C16.2478 2.74131 16.7589 3.11244 16.9811 3.22842H18.9811C20.0857 3.22842 20.9811 4.09964 20.9811 5.17436V13.4428C20.9811 17.0252 17.9963 19.9293 14.3145 19.9293H10.9811C7.29922 19.9293 4.31445 17.0252 4.31445 13.4428V5.17436C4.31445 4.09964 5.20989 3.22842 6.31445 3.22842H8.31445Z" fill="#42A8C3"/>
<path d="M14.3148 3.08676C14.3148 3.00992 14.266 2.93118 14.1902 2.8556C13.8058 2.47227 13.1986 2.43811 12.6481 2.43811C12.0976 2.43811 11.4687 2.44229 11.0965 2.83691C11.0261 2.9115 10.9814 2.99478 10.9814 3.08676C10.9814 3.41108 10.9814 3.73541 11.3981 3.73541H13.8981C14.3148 3.73541 14.3148 3.41108 14.3148 3.08676Z" fill="white"/>
<path d="M6.98145 6.95649C6.98145 6.24 7.5784 5.65918 8.31478 5.65918H16.9814C17.7178 5.65918 18.3148 6.24 18.3148 6.95649V9.55108C18.3148 11.7005 16.5239 13.443 14.3148 13.443H10.9814C8.77231 13.443 6.98145 11.7005 6.98145 9.55108V6.95649Z" fill="white"/>
<mask id="mask0_745_1681" style="mask-type:alpha" maskUnits="userSpaceOnUse" x="6" y="5" width="13" height="9">
<path d="M6.98145 6.95649C6.98145 6.24 7.5784 5.65918 8.31478 5.65918H16.9814C17.7178 5.65918 18.3148 6.24 18.3148 6.95649V9.55108C18.3148 11.7005 16.5239 13.443 14.3148 13.443H10.9814C8.77231 13.443 6.98145 11.7005 6.98145 9.55108V6.95649Z" fill="white"/>
</mask>
<g mask="url(#mask0_745_1681)">
<path d="M17.3154 6.63215C17.3154 5.85377 16.0932 5.65918 15.3155 5.65918H18.3155L18.3154 13.7673C16.0932 13.8754 9.9154 13.7673 10.9821 13.7673C12.3154 13.7673 14.6487 12.7943 15.6488 12.1457C16.5636 11.5523 17.3155 10.5241 17.3154 9.55108V6.63215Z" fill="#C3D3DB"/>
</g>
</svg>
