<svg width="16" height="18" viewBox="0 0 16 18" fill="none" xmlns="http://www.w3.org/2000/svg">
<path d="M15.4894 2.82353H11.9149V1.94118C11.9149 1.42634 11.7176 0.932599 11.3665 0.568557C11.0154 0.204516 10.5391 0 10.0426 0H5.95745C5.46087 0 4.98463 0.204516 4.6335 0.568557C4.28237 0.932599 4.08511 1.42634 4.08511 1.94118V2.82353H0.510638C0.375209 2.82353 0.245326 2.87931 0.149562 2.97859C0.0537992 3.07787 0 3.21253 0 3.35294C0 3.49335 0.0537992 3.62801 0.149562 3.72729C0.245326 3.82658 0.375209 3.88235 0.510638 3.88235H1.3617V16.7647C1.3617 17.0923 1.48723 17.4065 1.71068 17.6382C1.93413 17.8699 2.23719 18 2.55319 18H13.4468C13.7628 18 14.0659 17.8699 14.2893 17.6382C14.5128 17.4065 14.6383 17.0923 14.6383 16.7647V3.88235H15.4894C15.6248 3.88235 15.7547 3.82658 15.8504 3.72729C15.9462 3.62801 16 3.49335 16 3.35294C16 3.21253 15.9462 3.07787 15.8504 2.97859C15.7547 2.87931 15.6248 2.82353 15.4894 2.82353ZM5.10638 1.94118C5.10638 1.70716 5.19605 1.48273 5.35565 1.31726C5.51526 1.15179 5.73173 1.05882 5.95745 1.05882H10.0426C10.2683 1.05882 10.4847 1.15179 10.6443 1.31726C10.804 1.48273 10.8936 1.70716 10.8936 1.94118V2.82353H5.10638V1.94118ZM13.617 16.7647C13.617 16.8115 13.5991 16.8564 13.5672 16.8895C13.5352 16.9226 13.492 16.9412 13.4468 16.9412H2.55319C2.50805 16.9412 2.46475 16.9226 2.43283 16.8895C2.40091 16.8564 2.38298 16.8115 2.38298 16.7647V3.88235H13.617V16.7647ZM6.46808 7.58824V13.2353C6.46808 13.3757 6.41429 13.5104 6.31852 13.6096C6.22276 13.7089 6.09288 13.7647 5.95745 13.7647C5.82202 13.7647 5.69213 13.7089 5.59637 13.6096C5.50061 13.5104 5.44681 13.3757 5.44681 13.2353V7.58824C5.44681 7.44783 5.50061 7.31317 5.59637 7.21389C5.69213 7.1146 5.82202 7.05882 5.95745 7.05882C6.09288 7.05882 6.22276 7.1146 6.31852 7.21389C6.41429 7.31317 6.46808 7.44783 6.46808 7.58824ZM10.5532 7.58824V13.2353C10.5532 13.3757 10.4994 13.5104 10.4036 13.6096C10.3079 13.7089 10.178 13.7647 10.0426 13.7647C9.90712 13.7647 9.77724 13.7089 9.68148 13.6096C9.58571 13.5104 9.53191 13.3757 9.53191 13.2353V7.58824C9.53191 7.44783 9.58571 7.31317 9.68148 7.21389C9.77724 7.1146 9.90712 7.05882 10.0426 7.05882C10.178 7.05882 10.3079 7.1146 10.4036 7.21389C10.4994 7.31317 10.5532 7.44783 10.5532 7.58824Z" fill="#FA8443"/>
</svg>
