<svg width="23" height="22" viewBox="0 0 23 22" fill="none" xmlns="http://www.w3.org/2000/svg">
<g clip-path="url(#clip0_945_3404)">
<path d="M15.0095 2.89917H1.7793L1.7793 14.3653H15.0095L15.0095 2.89917Z" stroke="#FE9C69" stroke-width="1.76403" stroke-linecap="round" stroke-linejoin="round"/>
<path d="M15.0137 7.30945H18.5417L21.1878 9.95549V14.3656H15.0137L15.0137 7.30945Z" stroke="#FE9C69" stroke-width="1.76403" stroke-linecap="round" stroke-linejoin="round"/>
<path d="M5.75581 18.7775C6.97362 18.7775 7.96085 17.7903 7.96085 16.5725C7.96085 15.3547 6.97362 14.3674 5.75581 14.3674C4.53801 14.3674 3.55078 15.3547 3.55078 16.5725C3.55078 17.7903 4.53801 18.7775 5.75581 18.7775Z" stroke="#FE9C69" stroke-width="1.76403" stroke-linecap="round" stroke-linejoin="round"/>
<path d="M17.2207 18.7766C18.4385 18.7766 19.4257 17.7894 19.4257 16.5716C19.4257 15.3538 18.4385 14.3666 17.2207 14.3666C16.0029 14.3666 15.0156 15.3538 15.0156 16.5716C15.0156 17.7894 16.0029 18.7766 17.2207 18.7766Z" stroke="#FE9C69" stroke-width="1.76403" stroke-linecap="round" stroke-linejoin="round"/>
</g>
<defs>
<clipPath id="clip0_945_3404">
<rect width="21.1683" height="21.1683" fill="white" transform="translate(0.902344 0.25293)"/>
</clipPath>
</defs>
</svg>
