<svg width="20" height="18" viewBox="0 0 20 18" fill="none" xmlns="http://www.w3.org/2000/svg">
<path d="M9.539 1.68091H3C1.89543 1.68091 1 2.57634 1 3.68091V15.0001C1 16.1046 1.89543 17.0001 3 17.0001H16.4064C17.511 17.0001 18.4064 16.1046 18.4064 15.0001V10.1915" stroke="#9398B2"/>
<path d="M12.1663 14.2281V13.0609C12.1663 12.4418 11.9291 11.8481 11.5067 11.4103C11.0844 10.9725 10.5116 10.7266 9.91429 10.7266H6.53622C5.93895 10.7266 5.36613 10.9725 4.94379 11.4103C4.52145 11.8481 4.28418 12.4418 4.28418 13.0609V14.2281" stroke="#9398B2" stroke-linecap="round" stroke-linejoin="round"/>
<path d="M8.22519 8.39208C9.46896 8.39208 10.4772 7.34696 10.4772 6.05774C10.4772 4.76851 9.46896 3.72339 8.22519 3.72339C6.98142 3.72339 5.97314 4.76851 5.97314 6.05774C5.97314 7.34696 6.98142 8.39208 8.22519 8.39208Z" stroke="#9398B2" stroke-linecap="round" stroke-linejoin="round"/>
<path d="M14.6068 7.80851C14.0417 7.63361 13.5298 7.31003 13.1212 6.86926C13.2527 6.7076 13.3346 6.50896 13.3566 6.29874C13.3785 6.08852 13.3395 5.87629 13.2444 5.68921C13.1493 5.50213 13.0026 5.34871 12.8229 5.24857C12.6433 5.14844 12.4389 5.10615 12.2359 5.12711C12.1896 4.89232 12.1664 4.65328 12.1665 4.41364C12.1665 4.04354 12.2212 3.68654 12.323 3.35114H12.3373C12.5116 3.3512 12.6829 3.30523 12.8352 3.21757C12.9875 3.12992 13.1158 3.00347 13.2079 2.85017C13.2999 2.69687 13.3528 2.52177 13.3614 2.34141C13.3701 2.16105 13.3343 1.98138 13.2573 1.81937C13.6579 1.43276 14.1423 1.15173 14.6697 1C14.7555 1.17468 14.8863 1.32134 15.0475 1.42375C15.2088 1.52617 15.3942 1.58035 15.5833 1.5803C15.7724 1.58035 15.9579 1.52617 16.1191 1.42375C16.2804 1.32134 16.4111 1.17468 16.497 1C17.0243 1.15173 17.5087 1.43276 17.9093 1.81937C17.8318 1.98251 17.796 2.16355 17.8053 2.34515C17.8146 2.52676 17.8687 2.70284 17.9625 2.85655C18.0563 3.01026 18.1865 3.13645 18.3408 3.22305C18.4951 3.30965 18.6682 3.35375 18.8436 3.35114C18.9477 3.69499 19.0004 4.05328 19.0001 4.41364C19.0001 4.65802 18.9762 4.89673 18.9308 5.12729C18.7278 5.10632 18.5234 5.14862 18.3437 5.24875C18.164 5.34889 18.0173 5.50231 17.9222 5.68939C17.8271 5.87647 17.7881 6.0887 17.81 6.29892C17.832 6.50913 17.914 6.70778 18.0455 6.86944C17.6368 7.31014 17.1249 7.63366 16.5598 7.80851C16.4935 7.59411 16.3631 7.4071 16.1876 7.27441C16.0121 7.14173 15.8005 7.07024 15.5833 7.07024C15.3661 7.07024 15.1545 7.14173 14.979 7.27441C14.8035 7.4071 14.6731 7.59411 14.6068 7.80851Z" stroke="#9398B2" stroke-width="0.7" stroke-linejoin="round"/>
<path d="M15.5831 5.65324C15.7401 5.65324 15.8956 5.62118 16.0407 5.55888C16.1858 5.49659 16.3177 5.40528 16.4287 5.29018C16.5398 5.17507 16.6278 5.03842 16.6879 4.88803C16.748 4.73763 16.779 4.57644 16.779 4.41366C16.779 4.25087 16.748 4.08968 16.6879 3.93929C16.6278 3.7889 16.5398 3.65224 16.4287 3.53714C16.3177 3.42203 16.1858 3.33072 16.0407 3.26843C15.8956 3.20613 15.7401 3.17407 15.5831 3.17407C15.2659 3.17407 14.9617 3.30467 14.7375 3.53714C14.5132 3.76961 14.3872 4.0849 14.3872 4.41366C14.3872 4.74242 14.5132 5.05771 14.7375 5.29018C14.9617 5.52264 15.2659 5.65324 15.5831 5.65324Z" stroke="#9398B2" stroke-width="0.7" stroke-linejoin="round"/>
</svg>
