<svg width="16" height="13" viewBox="0 0 16 13" fill="none" xmlns="http://www.w3.org/2000/svg">
<path d="M7.58698 10.8385C7.56497 10.7848 7.55404 10.7267 7.55404 10.6649C7.55404 10.603 7.56497 10.545 7.58698 10.4912C7.60872 10.4377 7.64141 10.3888 7.6849 10.3446L7.68503 10.3445L7.68516 10.3444C7.72852 10.3002 7.77669 10.2668 7.82904 10.2445C7.8819 10.2222 7.9388 10.211 7.99961 10.211C8.06081 10.211 8.11784 10.2222 8.17083 10.2445C8.22253 10.2664 8.27005 10.2989 8.31289 10.3421C8.31367 10.3428 8.31445 10.3436 8.31524 10.3444C8.35872 10.3885 8.39128 10.4375 8.41328 10.4912C8.43529 10.5449 8.44635 10.603 8.44635 10.6649C8.44635 10.7267 8.43529 10.7847 8.41328 10.8385C8.39141 10.8921 8.35872 10.941 8.31524 10.9852C8.27162 11.0298 8.22331 11.0635 8.17044 11.086C8.11771 11.1084 8.06068 11.1198 7.99961 11.1198C7.93893 11.1198 7.88203 11.1084 7.82943 11.0859C7.77787 11.0639 7.73034 11.0311 7.68737 10.9877C7.68659 10.9871 7.68581 10.9863 7.6849 10.9853C7.64154 10.9412 7.60885 10.8922 7.58698 10.8385ZM8.26042 0.678096C8.2388 0.642553 8.21094 0.616427 8.17669 0.599451C8.13294 0.577701 8.07396 0.566959 7.99987 0.566959C7.92578 0.566959 7.86693 0.577701 7.82318 0.599451C7.78893 0.616427 7.76094 0.642686 7.73945 0.678096C7.7375 0.681279 7.73555 0.684462 7.73346 0.687512L0.746224 11.851C0.706901 11.9158 0.672526 11.9911 0.642708 12.077C0.611068 12.1687 0.585026 12.2714 0.564583 12.3849C0.561589 12.4015 0.559375 12.4175 0.558073 12.4329H15.4418C15.4405 12.4175 15.4384 12.4015 15.4353 12.3849C15.4148 12.2714 15.3889 12.1687 15.3572 12.077C15.3273 11.9911 15.293 11.9158 15.2536 11.851L15.2522 11.8486L8.26276 0.681411L8.26042 0.678096ZM8.4181 0.0900503C8.54909 0.154902 8.65365 0.251849 8.73229 0.381421L15.7197 11.5449C15.7217 11.5479 15.7237 11.5511 15.7257 11.5543C15.7866 11.6546 15.8383 11.7667 15.8813 11.891C15.9221 12.0094 15.9553 12.1401 15.9813 12.283C15.9939 12.352 16 12.413 16 12.4667C16 12.5967 15.9688 12.7069 15.9066 12.7967C15.8352 12.9 15.7339 12.9643 15.6033 12.9889C15.5642 12.9963 15.5264 13 15.4897 13H0.510286C0.473568 13 0.435807 12.9963 0.396745 12.9889C0.266146 12.9642 0.164714 12.9 0.0933594 12.7967C0.0313802 12.7069 0 12.5967 0 12.4667C0 12.4131 0.00625 12.352 0.0188802 12.283C0.0446615 12.1401 0.0778646 12.0094 0.11888 11.891C0.161849 11.7666 0.213672 11.6546 0.274479 11.5543L0.274609 11.5544L0.276693 11.551L7.26628 0.383808L7.26771 0.381421C7.34635 0.251849 7.45091 0.154902 7.5819 0.0900503C7.70339 0.0299726 7.84258 0 8 0C8.15742 0 8.29662 0.0299726 8.4181 0.0900503ZM8.27643 9.63087C8.27591 9.73763 8.20221 9.805 8.10781 9.83392C8.07357 9.84439 8.03672 9.8497 8.00013 9.8497C7.96354 9.8497 7.92669 9.84439 7.89232 9.83392C7.79805 9.805 7.72422 9.7375 7.7237 9.63087L7.36953 4.9151C7.36953 4.91404 7.3694 4.91298 7.3694 4.91192C7.3694 4.7964 7.53828 4.72638 7.75443 4.69906C7.83216 4.68925 7.91615 4.68421 8.00013 4.68421C8.08412 4.68421 8.1681 4.68925 8.24583 4.69906C8.46198 4.72651 8.63073 4.79654 8.63073 4.91192C8.63073 4.91391 8.6306 4.91563 8.63047 4.91749L8.27643 9.63087Z" fill="#FA8443"/>
</svg>
