<svg width="16" height="16" viewBox="0 0 16 16" fill="none" xmlns="http://www.w3.org/2000/svg">
<path d="M7.48099 11.6223C7.45339 11.5559 7.43945 11.4844 7.43945 11.4081C7.43945 11.3315 7.45326 11.2601 7.48099 11.1938C7.50833 11.1279 7.54948 11.0676 7.60404 11.0129L7.60417 11.0127C7.65872 10.958 7.71914 10.9171 7.78516 10.8896C7.85156 10.8619 7.92318 10.8482 7.99948 10.8482C8.07643 10.8482 8.14818 10.8619 8.21458 10.8896C8.27969 10.9166 8.33919 10.9568 8.3931 11.0099C8.39414 11.011 8.39518 11.0118 8.39596 11.0127C8.45052 11.0671 8.49154 11.1276 8.51901 11.1938C8.54675 11.2602 8.56042 11.3317 8.56042 11.4081C8.56042 11.4844 8.54675 11.5559 8.51901 11.6223C8.49154 11.6882 8.45065 11.7487 8.39596 11.8034C8.34115 11.8581 8.28034 11.8997 8.21393 11.9275C8.14766 11.9552 8.07604 11.9691 7.99948 11.9691C7.92318 11.9691 7.85182 11.9552 7.78568 11.9275C7.72083 11.9003 7.66107 11.8598 7.60716 11.8064C7.60612 11.8053 7.60508 11.8043 7.60404 11.8034C7.54948 11.7488 7.50846 11.6884 7.48099 11.6223ZM8 0.672504C7.49297 0.672504 7.0013 0.720159 6.52526 0.815468C6.04857 0.910778 5.58867 1.05309 5.14609 1.24215L5.14622 1.24267C4.69635 1.43615 4.27747 1.66245 3.89023 1.92233C3.50221 2.18274 3.14232 2.47843 2.81159 2.81046L2.81029 2.81176C2.47826 3.14261 2.18255 3.50223 1.92214 3.89037C1.66224 4.2776 1.43607 4.69646 1.24245 5.14632C1.2401 5.15179 1.23763 5.15699 1.23516 5.16233C1.04948 5.59995 0.909505 6.05449 0.815234 6.52531C0.719922 7.00133 0.672266 7.49299 0.672266 7.99987C0.672266 8.50702 0.719922 8.99854 0.815234 9.47456C0.910547 9.95111 1.05286 10.4111 1.24193 10.8537L1.24232 10.8534C1.43581 11.3033 1.66211 11.7221 1.92201 12.1094C2.18242 12.4974 2.47813 12.8573 2.81016 13.1879L2.81146 13.1892C3.14219 13.5213 3.50195 13.817 3.8901 14.0774C4.27734 14.337 4.69622 14.5633 5.14609 14.7569C5.15156 14.7593 5.1569 14.7618 5.16211 14.7644C5.59974 14.95 6.0543 15.0899 6.52513 15.1843C7.00117 15.2796 7.49284 15.3272 7.99987 15.3272C8.5069 15.3272 8.99857 15.2797 9.47448 15.1843C9.95117 15.089 10.4109 14.9465 10.8538 14.7576L10.8535 14.7571C11.3034 14.5636 11.7223 14.3372 12.1095 14.0775C12.4974 13.8171 12.8573 13.5214 13.188 13.1893L13.1893 13.188C13.5212 12.8574 13.8171 12.4975 14.0773 12.1095C14.3372 11.7221 14.5635 11.3034 14.7572 10.8536C14.7595 10.8482 14.7618 10.8429 14.7645 10.8378C14.9503 10.4002 15.0901 9.94538 15.1844 9.47469C15.2797 8.99867 15.3275 8.50702 15.3275 8C15.3275 7.49312 15.2798 7.00146 15.1844 6.52544C15.0891 6.04876 14.9467 5.58901 14.7577 5.14632L14.7573 5.14645C14.5638 4.69659 14.3374 4.27773 14.0775 3.8905C13.8172 3.50249 13.5214 3.14274 13.1895 2.81189L13.1882 2.81059C12.8574 2.4787 12.4975 2.18287 12.1096 1.92246C11.7223 1.66258 11.3035 1.43628 10.8536 1.2428C10.8483 1.24045 10.843 1.23798 10.8376 1.23551C10.4 1.04984 9.94544 0.909866 9.47461 0.815598C8.9987 0.720159 8.50703 0.672504 8 0.672504ZM6.39401 0.156115C6.9138 0.0520816 7.44922 0 8 0C8.55065 0 9.0862 0.0520816 9.60599 0.156115C10.1185 0.258716 10.6169 0.412747 11.1008 0.618209C11.1069 0.620423 11.1129 0.622766 11.119 0.62537C11.6014 0.832916 12.0563 1.07926 12.4827 1.36545C12.9078 1.65073 13.3012 1.97402 13.6625 2.33638L13.6638 2.33768C14.026 2.69887 14.3495 3.09235 14.6346 3.51746C14.9208 3.94375 15.1672 4.39855 15.3747 4.88109L15.3743 4.88122L15.3747 4.88239C15.5839 5.37157 15.7404 5.87559 15.844 6.39393C15.948 6.91371 16 7.44911 16 7.99987C16 8.55063 15.948 9.08629 15.844 9.60581C15.7414 10.1183 15.5874 10.6167 15.3819 11.1005C15.3797 11.1067 15.3773 11.1128 15.3746 11.1189C15.1671 11.6013 14.9208 12.056 14.6345 12.4825C14.3493 12.9075 14.0259 13.3009 13.6637 13.6623L13.6624 13.6636C13.3012 14.026 12.9077 14.3493 12.4826 14.6346C12.0563 14.9206 11.6013 15.1671 11.1189 15.3746L11.1186 15.3741L11.1174 15.3746C10.6283 15.5836 10.1242 15.7401 9.60586 15.8439C9.08607 15.9479 8.55065 16 7.99987 16C7.44909 16 6.91354 15.9479 6.39388 15.8439C5.88151 15.7412 5.38307 15.5873 4.89909 15.3818C4.89297 15.3794 4.88698 15.3772 4.88086 15.3746C4.39831 15.1671 3.94362 14.9207 3.51719 14.6346C3.09219 14.3493 2.6987 14.026 2.3375 13.6636L2.3362 13.6623C1.97383 13.301 1.65052 12.9075 1.36523 12.4825C1.07904 12.0561 0.832682 11.6013 0.62513 11.1189L0.625651 11.1186L0.62513 11.1173C0.416146 10.6283 0.259635 10.1243 0.155859 9.60581C0.0520833 9.08603 0 8.5505 0 7.99961C0 7.44898 0.0520833 6.91345 0.15612 6.39367C0.258724 5.88132 0.41276 5.3829 0.618099 4.89906C0.620313 4.89294 0.622787 4.88695 0.62526 4.88083C0.832813 4.39829 1.07917 3.94349 1.36536 3.5172C1.65052 3.09222 1.97396 2.69874 2.33633 2.33742L2.33763 2.33612C2.69883 1.97376 3.09232 1.65047 3.51732 1.36519C3.94375 1.079 4.39857 0.832655 4.88099 0.62511L4.88125 0.6255L4.88229 0.62511C5.37161 0.416263 5.87565 0.259887 6.39401 0.156115ZM8.34727 10.1325C8.34662 10.2642 8.25391 10.3473 8.13542 10.383C8.09232 10.396 8.04596 10.4023 8 10.4023C7.95404 10.4023 7.90768 10.3959 7.86458 10.383C7.74609 10.3475 7.65339 10.2642 7.65273 10.1325L7.20781 4.31509C7.20768 4.31379 7.20768 4.31236 7.20768 4.31106C7.20768 4.16861 7.41979 4.08216 7.69128 4.04831C7.78893 4.0362 7.89453 4.03008 8 4.03008C8.10547 4.03008 8.21107 4.0362 8.30859 4.04831C8.58021 4.08216 8.79245 4.16861 8.79245 4.31106C8.79245 4.3134 8.79219 4.31574 8.79193 4.31796L8.34727 10.1325Z" fill="#FA8443"/>
</svg>
