<svg width="23" height="19" viewBox="0 0 23 19" fill="none" xmlns="http://www.w3.org/2000/svg">
<path d="M6.79154 12.6853L4.86654 10.2824C5.76793 9.18333 6.82606 8.31269 8.04095 7.67041C9.25584 7.02814 10.5658 6.70663 11.9707 6.70588C13.3763 6.70588 14.6865 7.03186 15.9014 7.68382C17.1163 8.33578 18.1741 9.22059 19.0749 10.3382L17.1499 12.6853C16.4776 11.8657 15.6985 11.223 14.8124 10.7574C13.9263 10.2917 12.979 10.0588 11.9707 10.0588C10.9624 10.0588 10.0151 10.2917 9.12904 10.7574C8.24293 11.223 7.46376 11.8657 6.79154 12.6853ZM2.8957 7.93529L0.970703 5.58824C2.37626 3.83725 4.01862 2.46814 5.89779 1.48088C7.77695 0.493627 9.80126 0 11.9707 0C14.1401 0 16.1645 0.493627 18.0436 1.48088C19.9228 2.46814 21.5651 3.83725 22.9707 5.58824L21.0457 7.93529C19.8693 6.50098 18.5056 5.37849 16.9546 4.56782C15.4036 3.75716 13.7423 3.3522 11.9707 3.35294C10.1985 3.35294 8.53687 3.75827 6.98587 4.56894C5.43487 5.37961 4.07148 6.50173 2.8957 7.93529ZM11.9707 19L15.202 15.0324C14.7895 14.5294 14.3082 14.1334 13.7582 13.8443C13.2082 13.5552 12.6124 13.411 11.9707 13.4118C11.329 13.4118 10.7332 13.5563 10.1832 13.8454C9.6332 14.1345 9.15195 14.5302 8.73945 15.0324L11.9707 19Z" fill="#42A7C3"/>
</svg>
