<svg width="15" height="11" viewBox="0 0 15 11" fill="none" xmlns="http://www.w3.org/2000/svg">
<path d="M14.669 1.72254C14.5829 1.3896 14.4151 1.08607 14.1822 0.842174C13.9493 0.598278 13.6594 0.422527 13.3414 0.33242C12.1774 0 7.49252 0 7.49252 0C7.49252 0 2.8074 0.0100622 1.64336 0.342483C1.32539 0.432594 1.03552 0.608355 0.802609 0.852262C0.569695 1.09617 0.401867 1.39971 0.315837 1.73266C-0.0362589 3.89836 -0.172843 7.19839 0.325505 9.27746C0.411544 9.6104 0.579376 9.91393 0.812289 10.1578C1.0452 10.4017 1.33507 10.5775 1.65303 10.6676C2.81707 11 7.50207 11 7.50207 11C7.50207 11 12.187 11 13.351 10.6676C13.669 10.5775 13.9588 10.4017 14.1918 10.1578C14.4247 9.91394 14.5925 9.61041 14.6786 9.27746C15.05 7.10869 15.1644 3.81069 14.669 1.72254Z" fill="#5B5F62"/>
<path d="M6.00146 7.85708L9.88794 5.49995L6.00146 3.14282V7.85708Z" fill="white"/>
</svg>
