<svg width="20" height="20" viewBox="0 0 20 20" fill="none" xmlns="http://www.w3.org/2000/svg">
<path d="M1 10.14L9.26615 1.3243C9.36251 1.22149 9.47691 1.13993 9.60282 1.08429C9.72874 1.02864 9.8637 1 10 1C10.1363 1 10.2713 1.02864 10.3972 1.08429C10.5231 1.13993 10.6375 1.22149 10.7338 1.3243L19 10.14M3.07692 7.925V17.8925C3.07692 18.5038 3.54215 19 4.11538 19H7.92308V14.2008C7.92308 13.5895 8.38831 13.0933 8.96154 13.0933H11.0385C11.6117 13.0933 12.0769 13.5895 12.0769 14.2008V19H15.8846C16.4578 19 16.9231 18.5038 16.9231 17.8925V7.925M6.53846 19H14.1538" stroke="#9398B2" stroke-linecap="round" stroke-linejoin="round"/>
</svg>
