<svg width="20" height="19" viewBox="0 0 20 19" fill="none" xmlns="http://www.w3.org/2000/svg">
<path d="M13.4615 13.7846V16.3415C13.4615 16.6806 13.3157 17.0058 13.056 17.2455C12.7963 17.4853 12.4441 17.62 12.0769 17.62H2.38462C2.01739 17.62 1.66521 17.4853 1.40554 17.2455C1.14588 17.0058 1 16.6806 1 16.3415V2.27846C1 1.93939 1.14588 1.61421 1.40554 1.37445C1.66521 1.13469 2.01739 1 2.38462 1H12.0769C12.4441 1 12.7963 1.13469 13.056 1.37445C13.3157 1.61421 13.4615 1.93939 13.4615 2.27846V4.83538M9.30769 9.31H19M19 9.31L16.2308 6.75308M19 9.31L16.2308 11.8669" stroke="#9398B2" stroke-linecap="round" stroke-linejoin="round"/>
</svg>
